<svg width="141" height="37" viewBox="0 0 141 37" fill="none" xmlns="http://www.w3.org/2000/svg">
<path d="M2.64 17V2.78C3.74667 2.67333 4.82 2.62 5.86 2.62C7.26 2.62 8.38 2.94667 9.22 3.6C10.0733 4.25333 10.5 5.24 10.5 6.56C10.5 7.86667 9.92 8.94667 8.76 9.8C7.61333 10.64 6.24 11.06 4.64 11.06C4.57333 11.06 4.5 11.06 4.42 11.06V10.4C4.47333 10.4 4.52 10.4 4.56 10.4C5.88 10.4 7.02667 10.0533 8 9.36C8.97333 8.66667 9.46 7.76667 9.46 6.66C9.46 5.54 9.12 4.73333 8.44 4.24C7.76 3.73333 6.84667 3.48 5.7 3.48C5.1 3.48 4.4 3.50667 3.6 3.56V17H2.64ZM14.2611 17V2.76C15.5278 2.66667 16.5878 2.62 17.4411 2.62C18.8011 2.62 19.9211 2.97333 20.8011 3.68C21.6811 4.37333 22.1211 5.36 22.1211 6.64C22.1211 7.50667 21.8678 8.31333 21.3611 9.06C20.8544 9.80667 20.2878 10.4 19.6611 10.84C20.1544 11.52 20.7611 12.3333 21.4811 13.28C22.2144 14.2133 22.6878 14.8 22.9011 15.04C23.7144 15.9067 24.6344 16.4 25.6611 16.52L25.6411 17.16C24.8278 17.1467 24.1678 17.0267 23.6611 16.8C23.1544 16.56 22.6678 16.2 22.2011 15.72C21.7478 15.24 20.6078 13.7467 18.7811 11.24C17.4744 11.24 16.2878 11.2 15.2211 11.12V17H14.2611ZM18.2011 10.44C18.7878 10.44 19.4144 10.0533 20.0811 9.28C20.7478 8.50667 21.0811 7.61333 21.0811 6.6C21.0811 5.57333 20.7344 4.8 20.0411 4.28C19.3611 3.74667 18.4544 3.48 17.3211 3.48C16.7211 3.48 16.0211 3.50667 15.2211 3.56V10.34C16.2878 10.4067 17.2811 10.44 18.2011 10.44ZM28.5652 15.1C27.2452 13.6733 26.5852 11.92 26.5852 9.84C26.5852 7.76 27.2452 6.01333 28.5652 4.6C29.8985 3.17333 31.5785 2.46 33.6052 2.46C35.6318 2.46 37.3118 3.17333 38.6452 4.6C39.9785 6.01333 40.6452 7.76 40.6452 9.84C40.6452 11.92 39.9785 13.6733 38.6452 15.1C37.3118 16.5267 35.6318 17.24 33.6052 17.24C31.5785 17.24 29.8985 16.5267 28.5652 15.1ZM29.2852 5.22C28.1785 6.46 27.6252 8 27.6252 9.84C27.6252 11.68 28.1785 13.2267 29.2852 14.48C30.4052 15.7333 31.8452 16.36 33.6052 16.36C35.3785 16.36 36.8185 15.7333 37.9252 14.48C39.0452 13.2267 39.6052 11.68 39.6052 9.84C39.6052 8 39.0452 6.46 37.9252 5.22C36.8185 3.96667 35.3785 3.34 33.6052 3.34C31.8318 3.34 30.3918 3.96667 29.2852 5.22ZM45.0814 15.4V2.7H46.0414V14.76C46.0414 16.5467 45.6681 17.9733 44.9214 19.04C44.5481 19.5867 44.1681 20.04 43.7814 20.4C43.3947 20.7733 42.9214 21.16 42.3614 21.56L41.9414 20.94C44.0347 19.4067 45.0814 17.56 45.0814 15.4ZM51.3119 17V2.7H57.9519V3.54H52.2719V8.8H57.4119V9.62H52.2719V16.16H58.1719V17H51.3119ZM68.775 17.24C66.695 17.24 64.9083 16.5333 63.415 15.12C61.9217 13.6933 61.175 11.94 61.175 9.86C61.175 7.76667 61.8283 6.01333 63.135 4.6C64.4417 3.17333 66.115 2.46 68.155 2.46C69.755 2.46 71.375 2.72667 73.015 3.26L72.755 4.06C71.155 3.58 69.6217 3.34 68.155 3.34C66.4083 3.34 64.9817 3.96667 63.875 5.22C62.7683 6.47333 62.215 8.00667 62.215 9.82C62.215 11.6333 62.855 13.18 64.135 14.46C65.4283 15.7267 66.975 16.36 68.775 16.36C70.3483 16.36 71.7083 16.12 72.855 15.64L73.155 16.32C72.6483 16.6133 71.9817 16.84 71.155 17C70.3417 17.16 69.5483 17.24 68.775 17.24ZM79.5573 3.54H74.7173V2.7H85.3573V3.54H80.5173V17H79.5573V3.54ZM104.248 2.7L98.1678 9.62C98.9811 10.5933 99.9145 11.68 100.968 12.88C102.034 14.08 102.721 14.82 103.028 15.1C103.348 15.38 103.594 15.5933 103.768 15.74C103.954 15.8733 104.234 16.0267 104.608 16.2C104.981 16.36 105.381 16.4667 105.808 16.52L105.788 17.16C104.988 17.1467 104.328 17.0267 103.808 16.8C103.288 16.56 102.834 16.2533 102.448 15.88C102.061 15.4933 101.214 14.56 99.9078 13.08C98.6145 11.5867 97.6411 10.4467 96.9878 9.66L103.128 2.7H104.248ZM96.6078 2.7V17H95.6478V2.7H96.6078ZM108.507 15.1C107.187 13.6733 106.527 11.92 106.527 9.84C106.527 7.76 107.187 6.01333 108.507 4.6C109.84 3.17333 111.52 2.46 113.547 2.46C115.573 2.46 117.253 3.17333 118.587 4.6C119.92 6.01333 120.587 7.76 120.587 9.84C120.587 11.92 119.92 13.6733 118.587 15.1C117.253 16.5267 115.573 17.24 113.547 17.24C111.52 17.24 109.84 16.5267 108.507 15.1ZM109.227 5.22C108.12 6.46 107.567 8 107.567 9.84C107.567 11.68 108.12 13.2267 109.227 14.48C110.347 15.7333 111.787 16.36 113.547 16.36C115.32 16.36 116.76 15.7333 117.867 14.48C118.987 13.2267 119.547 11.68 119.547 9.84C119.547 8 118.987 6.46 117.867 5.22C116.76 3.96667 115.32 3.34 113.547 3.34C111.773 3.34 110.333 3.96667 109.227 5.22ZM126.163 15.1C124.843 13.6733 124.183 11.92 124.183 9.84C124.183 7.76 124.843 6.01333 126.163 4.6C127.496 3.17333 129.176 2.46 131.203 2.46C133.229 2.46 134.909 3.17333 136.243 4.6C137.576 6.01333 138.243 7.76 138.243 9.84C138.243 11.92 137.576 13.6733 136.243 15.1C134.909 16.5267 133.229 17.24 131.203 17.24C129.176 17.24 127.496 16.5267 126.163 15.1ZM126.883 5.22C125.776 6.46 125.223 8 125.223 9.84C125.223 11.68 125.776 13.2267 126.883 14.48C128.003 15.7333 129.443 16.36 131.203 16.36C132.976 16.36 134.416 15.7333 135.523 14.48C136.643 13.2267 137.203 11.68 137.203 9.84C137.203 8 136.643 6.46 135.523 5.22C134.416 3.96667 132.976 3.34 131.203 3.34C129.429 3.34 127.989 3.96667 126.883 5.22Z" fill="#111111"/>
<path d="M47.233 23.8182H48.7045L52.1648 32.2699H52.2841L55.7443 23.8182H57.2159V34H56.0625V26.2642H55.9631L52.7812 34H51.6676L48.4858 26.2642H48.3864V34H47.233V23.8182ZM61.7761 34.179C61.2922 34.179 60.853 34.0878 60.4586 33.9055C60.0642 33.7199 59.751 33.4531 59.519 33.1051C59.287 32.7538 59.171 32.3295 59.171 31.8324C59.171 31.3949 59.2572 31.0402 59.4295 30.7685C59.6019 30.4934 59.8322 30.2779 60.1206 30.1222C60.4089 29.9664 60.7271 29.8504 61.0751 29.7741C61.4264 29.6946 61.7794 29.6316 62.1341 29.5852C62.5981 29.5256 62.9743 29.4808 63.2626 29.451C63.5543 29.4179 63.7664 29.3632 63.899 29.2869C64.0349 29.2107 64.1028 29.0781 64.1028 28.8892V28.8494C64.1028 28.3589 63.9686 27.9777 63.7001 27.706C63.435 27.4342 63.0323 27.2983 62.492 27.2983C61.9319 27.2983 61.4927 27.4209 61.1745 27.6662C60.8564 27.9115 60.6326 28.1733 60.5034 28.4517L59.3897 28.054C59.5886 27.59 59.8538 27.2287 60.1852 26.9702C60.5199 26.7083 60.8845 26.526 61.2789 26.4233C61.6767 26.3172 62.0678 26.2642 62.4522 26.2642C62.6975 26.2642 62.9792 26.294 63.2974 26.3537C63.6189 26.41 63.9288 26.5277 64.2271 26.7067C64.5287 26.8857 64.7789 27.1558 64.9778 27.517C65.1767 27.8783 65.2761 28.3622 65.2761 28.9688V34H64.1028V32.9659H64.0431C63.9636 33.1316 63.831 33.3089 63.6454 33.4979C63.4598 33.6868 63.2129 33.8475 62.9047 33.9801C62.5964 34.1127 62.2202 34.179 61.7761 34.179ZM61.9551 33.125C62.4191 33.125 62.8102 33.0339 63.1284 32.8516C63.4499 32.6693 63.6918 32.4339 63.8542 32.1456C64.0199 31.8572 64.1028 31.554 64.1028 31.2358V30.1619C64.0531 30.2216 63.9437 30.2763 63.7747 30.326C63.609 30.3724 63.4167 30.4138 63.198 30.4503C62.9825 30.4834 62.7721 30.5133 62.5666 30.5398C62.3644 30.563 62.2003 30.5829 62.0744 30.5994C61.7695 30.6392 61.4844 30.7038 61.2193 30.7933C60.9574 30.8795 60.7453 31.0104 60.5829 31.1861C60.4238 31.3584 60.3443 31.5937 60.3443 31.892C60.3443 32.2997 60.4951 32.608 60.7967 32.8168C61.1016 33.0223 61.4877 33.125 61.9551 33.125ZM68.5114 31.2159L68.4915 29.7642H68.7301L72.071 26.3636H73.5227L69.9631 29.9631H69.8636L68.5114 31.2159ZM67.4176 34V23.8182H68.5909V34H67.4176ZM72.2699 34L69.2869 30.2216L70.1222 29.4062L73.7614 34H72.2699ZM77.9201 34.1591C77.1843 34.1591 76.5496 33.9967 76.016 33.6719C75.4857 33.3438 75.0763 32.8864 74.788 32.2997C74.503 31.7098 74.3604 31.0237 74.3604 30.2415C74.3604 29.4593 74.503 28.7699 74.788 28.1733C75.0763 27.5734 75.4774 27.1061 75.9911 26.7713C76.5082 26.4332 77.1114 26.2642 77.8008 26.2642C78.1985 26.2642 78.5913 26.3305 78.979 26.4631C79.3668 26.5956 79.7198 26.8111 80.038 27.1094C80.3562 27.4044 80.6097 27.7955 80.7987 28.2827C80.9876 28.7699 81.082 29.3698 81.082 30.0824V30.5795H75.1957V29.5653H79.8888C79.8888 29.1345 79.8027 28.75 79.6303 28.4119C79.4613 28.0739 79.2193 27.8071 78.9045 27.6115C78.5929 27.416 78.225 27.3182 77.8008 27.3182C77.3335 27.3182 76.9291 27.4342 76.5877 27.6662C76.2496 27.8949 75.9895 28.1932 75.8072 28.5611C75.6249 28.929 75.5337 29.3234 75.5337 29.7443V30.4205C75.5337 30.9972 75.6332 31.486 75.832 31.8871C76.0342 32.2848 76.3143 32.5881 76.6722 32.7969C77.0302 33.0024 77.4461 33.1051 77.9201 33.1051C78.2283 33.1051 78.5067 33.062 78.7553 32.9759C79.0072 32.8864 79.2243 32.7538 79.4066 32.5781C79.5889 32.3991 79.7298 32.1771 79.8292 31.9119L80.9627 32.2301C80.8434 32.6146 80.6429 32.9527 80.3612 33.2443C80.0794 33.5327 79.7314 33.758 79.3171 33.9205C78.9028 34.0795 78.4371 34.1591 77.9201 34.1591ZM82.8668 34V26.3636H84.0004V27.517H84.0799C84.2191 27.1392 84.471 26.8326 84.8356 26.5973C85.2002 26.362 85.6112 26.2443 86.0685 26.2443C86.1547 26.2443 86.2624 26.246 86.3917 26.2493C86.521 26.2526 86.6187 26.2576 86.685 26.2642V27.4574C86.6452 27.4474 86.5541 27.4325 86.4116 27.4126C86.2724 27.3894 86.1249 27.3778 85.9691 27.3778C85.5979 27.3778 85.2665 27.4557 84.9748 27.6115C84.6864 27.764 84.4577 27.9761 84.2887 28.2479C84.123 28.5163 84.0401 28.8229 84.0401 29.1676V34H82.8668ZM93.4849 28.0739L92.4309 28.3722C92.3646 28.1965 92.2669 28.0258 92.1376 27.8601C92.0117 27.6911 91.8393 27.5518 91.6206 27.4425C91.4018 27.3331 91.1217 27.2784 90.7804 27.2784C90.313 27.2784 89.9236 27.3861 89.612 27.6016C89.3038 27.8137 89.1497 28.0838 89.1497 28.4119C89.1497 28.7036 89.2557 28.9339 89.4679 29.103C89.68 29.272 90.0114 29.4129 90.4622 29.5256L91.5957 29.804C92.2785 29.9697 92.7872 30.2232 93.122 30.5646C93.4567 30.9027 93.6241 31.3385 93.6241 31.8722C93.6241 32.3097 93.4982 32.7008 93.2463 33.0455C92.9977 33.3902 92.6497 33.6619 92.2022 33.8608C91.7548 34.0597 91.2344 34.1591 90.6412 34.1591C89.8623 34.1591 89.2176 33.9901 88.7072 33.652C88.1968 33.3139 87.8736 32.8201 87.7377 32.1705L88.8514 31.892C88.9574 32.303 89.158 32.6113 89.4529 32.8168C89.7512 33.0223 90.1407 33.125 90.6213 33.125C91.1681 33.125 91.6023 33.009 91.9238 32.777C92.2486 32.5417 92.411 32.2599 92.411 31.9318C92.411 31.6667 92.3182 31.4446 92.1326 31.2656C91.947 31.0833 91.662 30.9474 91.2775 30.858L90.0048 30.5597C89.3055 30.3939 88.7917 30.1371 88.4636 29.7891C88.1388 29.4377 87.9764 28.9986 87.9764 28.4716C87.9764 28.0407 88.0974 27.6596 88.3393 27.3281C88.5846 26.9967 88.9177 26.7365 89.3386 26.5476C89.7628 26.3587 90.2434 26.2642 90.7804 26.2642C91.536 26.2642 92.1293 26.4299 92.5602 26.7614C92.9944 27.0928 93.3026 27.5303 93.4849 28.0739Z" fill="#888888"/>
</svg>
