<?xml version="1.0" encoding="utf-8"?>
<!-- Generator: Adobe Illustrator 15.1.0, SVG Export Plug-In . SVG Version: 6.00 Build 0)  -->
<!DOCTYPE svg PUBLIC "-//W3C//DTD SVG 1.1//EN" "http://www.w3.org/Graphics/SVG/1.1/DTD/svg11.dtd">
<svg version="1.1" id="Layer_1" xmlns="http://www.w3.org/2000/svg" xmlns:xlink="http://www.w3.org/1999/xlink" x="0px" y="0px"
	 width="141px" height="37px" viewBox="0 0 141 37" enable-background="new 0 0 141 37" xml:space="preserve">
<path fill="#FFFFFF" stroke="#FFFFFF" stroke-width="0.5" stroke-miterlimit="10" d="M2.64,17V2.78c1.106-0.106,2.18-0.16,3.22-0.16
	c1.4,0,2.52,0.327,3.36,0.98c0.853,0.653,1.28,1.64,1.28,2.96c0,1.307-0.58,2.387-1.74,3.24c-1.146,0.84-2.52,1.26-4.12,1.26
	c-0.067,0-0.14,0-0.22,0V10.4c0.053,0,0.1,0,0.14,0c1.32,0,2.467-0.347,3.44-1.04c0.973-0.693,1.46-1.593,1.46-2.7
	c0-1.12-0.34-1.927-1.02-2.42C7.76,3.733,6.847,3.48,5.7,3.48c-0.6,0-1.3,0.027-2.1,0.08V17H2.64z M14.261,17V2.76
	c1.267-0.093,2.327-0.14,3.18-0.14c1.36,0,2.48,0.353,3.36,1.06c0.88,0.693,1.32,1.68,1.32,2.96c0,0.867-0.253,1.673-0.76,2.42
	c-0.507,0.747-1.074,1.34-1.7,1.78c0.493,0.68,1.1,1.494,1.82,2.44c0.733,0.934,1.207,1.52,1.42,1.76
	c0.813,0.867,1.733,1.36,2.76,1.48l-0.02,0.64c-0.813-0.014-1.473-0.133-1.98-0.36c-0.507-0.24-0.993-0.6-1.46-1.08
	c-0.453-0.48-1.593-1.974-3.42-4.48c-1.307,0-2.494-0.04-3.56-0.12V17H14.261z M18.201,10.44c0.586,0,1.213-0.387,1.88-1.16
	c0.667-0.773,1-1.667,1-2.68c0-1.027-0.347-1.8-1.04-2.32c-0.68-0.533-1.586-0.8-2.72-0.8c-0.6,0-1.3,0.027-2.1,0.08v6.78
	C16.288,10.407,17.281,10.44,18.201,10.44z M28.565,15.1c-1.32-1.427-1.98-3.18-1.98-5.26s0.66-3.827,1.98-5.24
	c1.333-1.427,3.013-2.14,5.04-2.14s3.707,0.713,5.04,2.14c1.333,1.413,2,3.16,2,5.24s-0.667,3.833-2,5.26
	c-1.333,1.427-3.013,2.14-5.04,2.14C31.579,17.24,29.898,16.527,28.565,15.1z M29.285,5.22c-1.106,1.24-1.66,2.78-1.66,4.62
	c0,1.84,0.554,3.387,1.66,4.64c1.12,1.253,2.56,1.88,4.32,1.88c1.773,0,3.213-0.626,4.32-1.88c1.12-1.253,1.68-2.8,1.68-4.64
	c0-1.84-0.56-3.38-1.68-4.62c-1.107-1.253-2.547-1.88-4.32-1.88S30.392,3.967,29.285,5.22z M45.082,15.4V2.7h0.96v12.06
	c0,1.787-0.374,3.213-1.12,4.28c-0.374,0.547-0.753,1-1.14,1.36c-0.387,0.373-0.86,0.76-1.42,1.16l-0.42-0.621
	C44.035,19.406,45.082,17.56,45.082,15.4z M51.312,17V2.7h6.64v0.84h-5.68V8.8h5.14v0.82h-5.14v6.54h5.9V17H51.312z M68.775,17.24
	c-2.08,0-3.867-0.707-5.36-2.12c-1.493-1.427-2.24-3.18-2.24-5.26c0-2.093,0.653-3.847,1.96-5.26c1.307-1.427,2.98-2.14,5.02-2.14
	c1.6,0,3.22,0.267,4.861,0.8l-0.261,0.8c-1.601-0.48-3.133-0.72-4.6-0.72c-1.747,0-3.173,0.627-4.28,1.88
	c-1.107,1.253-1.66,2.787-1.66,4.6s0.64,3.36,1.92,4.64c1.293,1.267,2.84,1.9,4.64,1.9c1.573,0,2.934-0.24,4.081-0.72l0.299,0.68
	c-0.506,0.293-1.172,0.52-2,0.68C70.342,17.16,69.548,17.24,68.775,17.24z M79.557,3.54h-4.84V2.7h10.641v0.84h-4.84V17h-0.961V3.54
	L79.557,3.54z M104.248,2.7l-6.08,6.92c0.813,0.973,1.746,2.06,2.8,3.26c1.066,1.2,1.753,1.94,2.06,2.22
	c0.32,0.28,0.566,0.493,0.74,0.64c0.188,0.133,0.467,0.287,0.84,0.46c0.373,0.16,0.773,0.267,1.201,0.32l-0.021,0.64
	c-0.8-0.014-1.46-0.133-1.979-0.36c-0.521-0.24-0.975-0.546-1.359-0.92c-0.389-0.387-1.234-1.32-2.54-2.8
	c-1.294-1.493-2.269-2.633-2.921-3.42l6.141-6.96H104.248z M96.607,2.7V17h-0.959V2.7H96.607z M108.507,15.1
	c-1.319-1.427-1.979-3.18-1.979-5.26s0.66-3.827,1.979-5.24c1.333-1.427,3.013-2.14,5.04-2.14c2.026,0,3.706,0.713,5.04,2.14
	c1.333,1.413,2,3.16,2,5.24s-0.667,3.833-2,5.26c-1.334,1.427-3.014,2.14-5.04,2.14C111.52,17.24,109.84,16.527,108.507,15.1z
	 M109.227,5.22c-1.105,1.24-1.66,2.78-1.66,4.62c0,1.84,0.555,3.387,1.66,4.64c1.121,1.253,2.562,1.88,4.32,1.88
	c1.773,0,3.213-0.626,4.32-1.88c1.119-1.253,1.68-2.8,1.68-4.64c0-1.84-0.561-3.38-1.68-4.62c-1.107-1.253-2.547-1.88-4.32-1.88
	S110.333,3.967,109.227,5.22z M126.163,15.1c-1.32-1.427-1.979-3.18-1.979-5.26s0.659-3.827,1.979-5.24
	c1.333-1.427,3.013-2.14,5.04-2.14c2.025,0,3.706,0.713,5.04,2.14c1.333,1.413,2,3.16,2,5.24s-0.667,3.833-2,5.26
	c-1.334,1.427-3.015,2.14-5.04,2.14C129.176,17.24,127.496,16.527,126.163,15.1z M126.883,5.22c-1.107,1.24-1.66,2.78-1.66,4.62
	c0,1.84,0.553,3.387,1.66,4.64c1.12,1.253,2.561,1.88,4.32,1.88c1.773,0,3.213-0.626,4.32-1.88c1.119-1.253,1.68-2.8,1.68-4.64
	c0-1.84-0.561-3.38-1.68-4.62c-1.107-1.253-2.547-1.88-4.32-1.88S127.988,3.967,126.883,5.22z"/>
<path fill="#FFFFFF" d="M47.233,23.818h1.472l3.46,8.451h0.119l3.46-8.451h1.472V34h-1.153v-7.736h-0.1L52.781,34h-1.114
	l-3.182-7.736h-0.1V34h-1.153L47.233,23.818L47.233,23.818z M61.776,34.18c-0.484,0-0.923-0.092-1.317-0.273
	c-0.394-0.186-0.708-0.452-0.939-0.801c-0.232-0.352-0.348-0.774-0.348-1.272c0-0.438,0.086-0.792,0.259-1.063
	c0.172-0.274,0.402-0.49,0.691-0.646c0.288-0.155,0.606-0.271,0.955-0.349c0.351-0.078,0.704-0.143,1.059-0.188
	c0.464-0.06,0.84-0.104,1.128-0.134c0.292-0.033,0.504-0.088,0.636-0.164c0.136-0.076,0.204-0.209,0.204-0.398V28.85
	c0-0.49-0.134-0.871-0.403-1.144c-0.265-0.272-0.668-0.407-1.208-0.407c-0.56,0-1,0.122-1.318,0.367
	c-0.318,0.246-0.542,0.508-0.671,0.785l-1.114-0.396c0.199-0.465,0.464-0.826,0.795-1.084c0.335-0.262,0.699-0.445,1.094-0.547
	c0.398-0.105,0.789-0.16,1.173-0.16c0.245,0,0.527,0.03,0.845,0.09c0.322,0.058,0.631,0.174,0.93,0.354
	c0.302,0.179,0.552,0.449,0.751,0.812c0.199,0.36,0.298,0.845,0.298,1.451V34h-1.173v-1.034h-0.06
	c-0.08,0.166-0.212,0.343-0.397,0.532s-0.433,0.35-0.741,0.482C62.596,34.113,62.22,34.18,61.776,34.18z M61.955,33.125
	c0.464,0,0.855-0.092,1.173-0.273c0.321-0.182,0.563-0.418,0.726-0.705c0.166-0.289,0.249-0.592,0.249-0.91v-1.073
	c-0.05,0.06-0.159,0.114-0.328,0.164c-0.166,0.047-0.358,0.088-0.577,0.124c-0.216,0.033-0.426,0.063-0.632,0.09
	c-0.202,0.021-0.366,0.043-0.492,0.061c-0.305,0.039-0.59,0.104-0.855,0.192c-0.262,0.086-0.474,0.217-0.636,0.394
	c-0.159,0.172-0.239,0.408-0.239,0.707c0,0.406,0.151,0.715,0.453,0.924C61.102,33.021,61.488,33.125,61.955,33.125z M68.511,31.216
	l-0.02-1.452h0.238l3.339-3.399h1.453l-3.561,3.6h-0.099L68.511,31.216z M67.417,34V23.818h1.173V34H67.417z M72.27,34l-2.981-3.777
	l0.835-0.815L73.762,34H72.27z M77.92,34.159c-0.736,0-1.37-0.163-1.904-0.487c-0.529-0.328-0.938-0.785-1.228-1.372
	c-0.285-0.59-0.429-1.276-0.429-2.058c0-0.783,0.144-1.473,0.429-2.068c0.288-0.601,0.688-1.068,1.203-1.402
	c0.517-0.338,1.12-0.508,1.81-0.508c0.398,0,0.791,0.066,1.178,0.199c0.39,0.133,0.742,0.348,1.061,0.646
	c0.318,0.295,0.57,0.686,0.761,1.174c0.189,0.486,0.283,1.086,0.283,1.799v0.498h-5.888v-1.016h4.693
	c0-0.431-0.086-0.814-0.258-1.152c-0.17-0.338-0.412-0.605-0.727-0.801c-0.313-0.195-0.68-0.293-1.104-0.293
	c-0.467,0-0.87,0.115-1.213,0.348c-0.338,0.229-0.599,0.527-0.78,0.895c-0.183,0.369-0.273,0.764-0.273,1.185v0.676
	c0,0.577,0.1,1.065,0.299,1.468c0.202,0.397,0.482,0.7,0.84,0.909c0.357,0.205,0.773,0.31,1.248,0.31
	c0.309,0,0.587-0.043,0.836-0.129c0.252-0.09,0.469-0.224,0.65-0.398c0.183-0.18,0.324-0.4,0.423-0.666l1.134,0.318
	c-0.119,0.385-0.32,0.723-0.602,1.014c-0.281,0.289-0.631,0.514-1.045,0.676C78.902,34.08,78.438,34.159,77.92,34.159z M82.867,34
	v-7.637H84v1.154h0.08c0.139-0.379,0.391-0.687,0.756-0.92c0.364-0.236,0.775-0.354,1.232-0.354c0.086,0,0.193,0.002,0.322,0.006
	c0.131,0.002,0.229,0.008,0.295,0.015v1.192c-0.041-0.011-0.131-0.024-0.273-0.045c-0.141-0.022-0.287-0.034-0.443-0.034
	c-0.371,0-0.701,0.077-0.994,0.232c-0.287,0.152-0.518,0.365-0.686,0.638c-0.166,0.269-0.249,0.573-0.249,0.92V34H82.867z
	 M93.484,28.074l-1.055,0.298c-0.064-0.177-0.162-0.347-0.293-0.513c-0.125-0.168-0.298-0.309-0.517-0.418
	c-0.22-0.108-0.5-0.164-0.841-0.164c-0.469,0-0.856,0.108-1.17,0.324c-0.308,0.211-0.461,0.481-0.461,0.811
	c0,0.291,0.105,0.521,0.317,0.691c0.212,0.168,0.544,0.31,0.995,0.422l1.133,0.279c0.684,0.164,1.191,0.418,1.526,0.76
	c0.335,0.338,0.502,0.772,0.502,1.308c0,0.438-0.126,0.829-0.378,1.173c-0.248,0.346-0.596,0.617-1.044,0.816
	c-0.447,0.197-0.968,0.298-1.562,0.298c-0.779,0-1.424-0.169-1.935-0.507s-0.834-0.832-0.97-1.482l1.113-0.277
	c0.105,0.41,0.307,0.719,0.603,0.924c0.298,0.207,0.688,0.31,1.168,0.31c0.547,0,0.981-0.116,1.303-0.349
	c0.324-0.235,0.487-0.518,0.487-0.846c0-0.266-0.094-0.486-0.278-0.666c-0.187-0.182-0.471-0.317-0.854-0.408l-1.272-0.297
	c-0.698-0.166-1.214-0.424-1.542-0.771c-0.324-0.352-0.486-0.791-0.486-1.316c0-0.432,0.121-0.813,0.363-1.145
	c0.244-0.332,0.578-0.592,0.998-0.78c0.426-0.188,0.905-0.284,1.441-0.284c0.757,0,1.35,0.166,1.781,0.498
	C92.994,27.093,93.303,27.529,93.484,28.074z"/>
</svg>
