<?xml version="1.0" encoding="utf-8"?>
<!-- Generator: Adobe Illustrator 15.1.0, SVG Export Plug-In . SVG Version: 6.00 Build 0)  -->
<!DOCTYPE svg PUBLIC "-//W3C//DTD SVG 1.1//EN" "http://www.w3.org/Graphics/SVG/1.1/DTD/svg11.dtd">
<svg version="1.1" id="Layer_1" xmlns="http://www.w3.org/2000/svg" xmlns:xlink="http://www.w3.org/1999/xlink" x="0px" y="0px"
	 width="27px" height="27px" viewBox="0 0 27 27" enable-background="new 0 0 27 27" xml:space="preserve">
<circle fill="none" stroke="#108C7D" stroke-dasharray="2,2" cx="13.5" cy="13.5" r="13"/>
<path fill="#108C7D" d="M8,14c0-0.133,0.053-0.26,0.146-0.354S8.367,13.5,8.5,13.5h11c0.133,0,0.26,0.053,0.354,0.146
	S20,13.867,20,14s-0.053,0.26-0.146,0.354S19.633,14.5,19.5,14.5h-11c-0.133,0-0.26-0.053-0.354-0.146S8,14.133,8,14z"/>
<path fill="#108C7D" d="M14,20c-0.133,0-0.26-0.053-0.354-0.146S13.5,19.633,13.5,19.5v-11c0-0.133,0.053-0.26,0.146-0.354
	S13.867,8,14,8s0.26,0.053,0.354,0.146S14.5,8.367,14.5,8.5v11c0,0.133-0.053,0.26-0.146,0.354S14.133,20,14,20z"/>
</svg>
