<svg width="24" height="24" viewBox="0 0 24 24" fill="none" xmlns="http://www.w3.org/2000/svg">
<g clip-path="url(#clip0_721_625)">
<path d="M0.4935 15.4995C1.24619 17.9602 2.76897 20.1142 4.8377 21.6445C6.90643 23.1747 9.41179 24.0004 11.985 24C18.621 24 24 18.627 24 12C24 5.373 18.621 8.99676e-07 11.9865 8.99676e-07C8.94041 -0.00117747 6.00769 1.15524 3.78218 3.23509C1.55668 5.31494 0.204696 8.1628 0 11.202L0.0045 11.211L6.4605 13.8645C7.04277 13.479 7.7324 13.2883 8.43 13.32L11.37 9.054L11.3685 8.994C11.3697 7.78404 11.8508 6.62397 12.7062 5.76826C13.5616 4.91255 14.7215 4.43109 15.9315 4.4295C17.1415 4.43109 18.3014 4.91255 19.1568 5.76826C20.0122 6.62397 20.4933 7.78404 20.4945 8.994C20.494 9.60199 20.3723 10.2038 20.1363 10.7641C19.9004 11.3245 19.555 11.8321 19.1205 12.2573C18.6859 12.6825 18.1709 13.0168 17.6055 13.2405C17.0402 13.4641 16.4359 13.5728 15.828 13.56L11.622 16.56C11.6363 17.1157 11.5114 17.6662 11.2587 18.1613C11.006 18.6564 10.6336 19.0805 10.1752 19.3951C9.71687 19.7096 9.18716 19.9045 8.63427 19.9621C8.08138 20.0197 7.52286 19.9382 7.0095 19.725C6.51678 19.5197 6.08073 19.1988 5.73819 18.7894C5.39565 18.38 5.15669 17.8942 5.0415 17.373L0.495 15.4995H0.4935Z" fill="#999999"/>
<path d="M7.30152 19.0246C7.92647 19.2632 8.61976 19.2489 9.23437 18.9848C9.84897 18.7208 10.3366 18.2277 10.5937 17.6102C10.8509 16.9927 10.8574 16.2993 10.6118 15.677C10.3663 15.0548 9.88806 14.5526 9.27852 14.2771C8.67415 14.0249 7.99607 14.0142 7.38402 14.2471L8.91852 14.8831C9.148 14.9787 9.35642 15.1185 9.53188 15.2945C9.70733 15.4706 9.84639 15.6795 9.9411 15.9094C10.0358 16.1392 10.0843 16.3854 10.0839 16.634C10.0835 16.8826 10.0341 17.1286 9.93852 17.3581C9.84298 17.5876 9.70318 17.796 9.52709 17.9715C9.35101 18.1469 9.14209 18.286 8.91226 18.3807C8.68244 18.4754 8.43621 18.5239 8.18763 18.5235C7.93906 18.5231 7.693 18.4736 7.46352 18.3781L5.97852 17.7631C6.24876 18.3321 6.72003 18.7809 7.30152 19.0231V19.0246ZM12.8905 8.99411C12.8909 9.80066 13.2113 10.5741 13.7813 11.1447C14.3513 11.7153 15.1245 12.0364 15.931 12.0376C16.7376 12.0364 17.5107 11.7153 18.0807 11.1447C18.6507 10.5741 18.9711 9.80066 18.9715 8.99411C18.9703 8.18809 18.6496 7.41542 18.0797 6.84547C17.5097 6.27552 16.737 5.9548 15.931 5.95361C15.125 5.9548 14.3523 6.27552 13.7824 6.84547C13.2124 7.41542 12.8917 8.18809 12.8905 8.99411ZM15.9355 6.70361C16.2357 6.70381 16.5329 6.76313 16.8102 6.8782C17.0875 6.99326 17.3394 7.16181 17.5515 7.37423C17.7637 7.58664 17.9319 7.83876 18.0466 8.11618C18.1613 8.39361 18.2202 8.69091 18.22 8.99111C18.2198 9.29131 18.1605 9.58854 18.0454 9.86581C17.9304 10.1431 17.7618 10.395 17.5494 10.6071C17.337 10.8193 17.0849 10.9875 16.8074 11.1022C16.53 11.2169 16.2327 11.2758 15.9325 11.2756C15.3262 11.2752 14.7449 11.034 14.3165 10.605C13.8881 10.176 13.6476 9.5944 13.648 8.98811C13.6484 8.38183 13.8896 7.80053 14.3186 7.37211C14.7476 6.94368 15.3292 6.70322 15.9355 6.70361Z" fill="#212529"/>
</g>
<defs>
<clipPath id="clip0_721_625">
<rect width="24" height="24" fill="white"/>
</clipPath>
</defs>
</svg>
