<svg width="15" height="15" viewBox="0 0 15 15" fill="none" xmlns="http://www.w3.org/2000/svg">
<g clip-path="url(#clip0_1048_620)">
<path fill-rule="evenodd" clip-rule="evenodd" d="M5.625 11.7188C5.625 11.8431 5.67439 11.9623 5.76229 12.0502C5.8502 12.1381 5.96943 12.1875 6.09375 12.1875H13.5938C13.7181 12.1875 13.8373 12.1381 13.9252 12.0502C14.0131 11.9623 14.0625 11.8431 14.0625 11.7188V3.28125C14.0625 3.15693 14.0131 3.0377 13.9252 2.94979C13.8373 2.86189 13.7181 2.8125 13.5938 2.8125H6.09375C5.96943 2.8125 5.8502 2.86189 5.76229 2.94979C5.67439 3.0377 5.625 3.15693 5.625 3.28125V5.15625C5.625 5.28057 5.57561 5.3998 5.48771 5.48771C5.3998 5.57561 5.28057 5.625 5.15625 5.625C5.03193 5.625 4.9127 5.57561 4.82479 5.48771C4.73689 5.3998 4.6875 5.28057 4.6875 5.15625V3.28125C4.6875 2.90829 4.83566 2.5506 5.09938 2.28688C5.3631 2.02316 5.72079 1.875 6.09375 1.875H13.5938C13.9667 1.875 14.3244 2.02316 14.5881 2.28688C14.8518 2.5506 15 2.90829 15 3.28125V11.7188C15 12.0917 14.8518 12.4494 14.5881 12.7131C14.3244 12.9768 13.9667 13.125 13.5938 13.125H6.09375C5.72079 13.125 5.3631 12.9768 5.09938 12.7131C4.83566 12.4494 4.6875 12.0917 4.6875 11.7188V9.84375C4.6875 9.71943 4.73689 9.6002 4.82479 9.51229C4.9127 9.42439 5.03193 9.375 5.15625 9.375C5.28057 9.375 5.3998 9.42439 5.48771 9.51229C5.57561 9.6002 5.625 9.71943 5.625 9.84375V11.7188Z" fill="black"/>
<path fill-rule="evenodd" clip-rule="evenodd" d="M0.137713 7.83187C0.0940599 7.78833 0.059426 7.7366 0.0357949 7.67965C0.0121639 7.6227 0 7.56165 0 7.5C0 7.43834 0.0121639 7.37729 0.0357949 7.32034C0.059426 7.26339 0.0940599 7.21166 0.137713 7.16812L2.95021 4.35562C2.9938 4.31204 3.04554 4.27747 3.10248 4.25388C3.15942 4.23029 3.22045 4.21815 3.28209 4.21815C3.34372 4.21815 3.40475 4.23029 3.4617 4.25388C3.51864 4.27747 3.57038 4.31204 3.61396 4.35562C3.65755 4.3992 3.69212 4.45094 3.7157 4.50789C3.73929 4.56483 3.75143 4.62586 3.75143 4.6875C3.75143 4.74913 3.73929 4.81016 3.7157 4.86711C3.69212 4.92405 3.65755 4.97579 3.61396 5.01937L1.60115 7.03125H9.84459C9.96891 7.03125 10.0881 7.08063 10.176 7.16854C10.264 7.25645 10.3133 7.37568 10.3133 7.5C10.3133 7.62432 10.264 7.74355 10.176 7.83145C10.0881 7.91936 9.96891 7.96875 9.84459 7.96875H1.60115L3.61396 9.98062C3.65755 10.0242 3.69212 10.0759 3.7157 10.1329C3.73929 10.1898 3.75143 10.2509 3.75143 10.3125C3.75143 10.3741 3.73929 10.4352 3.7157 10.4921C3.69212 10.5491 3.65755 10.6008 3.61396 10.6444C3.57038 10.688 3.51864 10.7225 3.4617 10.7461C3.40475 10.7697 3.34372 10.7818 3.28209 10.7818C3.22045 10.7818 3.15942 10.7697 3.10248 10.7461C3.04554 10.7225 2.9938 10.688 2.95021 10.6444L0.137713 7.83187V7.83187Z" fill="black"/>
</g>
<defs>
<clipPath id="clip0_1048_620">
<rect width="15" height="15" fill="white"/>
</clipPath>
</defs>
</svg>
