<svg width="9" height="14" viewBox="0 0 9 14" fill="none" xmlns="http://www.w3.org/2000/svg">
<path d="M4.50781 13.3125C3.32031 13.3125 2.35677 12.9349 1.61719 12.1797C0.914062 11.4609 0.5625 10.5365 0.5625 9.40625V3.9375L4.50781 0.890625C5.69531 0.890625 6.65885 1.26823 7.39844 2.02344C8.10156 2.74219 8.45312 3.66667 8.45312 4.79688L6.96875 5.5H6.89062V4.79688C6.89062 4.09896 6.70312 3.53385 6.32812 3.10156C5.86458 2.5651 5.25781 2.29688 4.50781 2.29688C3.7526 2.29688 3.14583 2.5651 2.6875 3.10156C2.3125 3.53385 2.125 4.09896 2.125 4.79688V9.40625C2.125 10.0938 2.3125 10.6589 2.6875 11.1016C3.14062 11.638 3.7474 11.9062 4.50781 11.9062C5.2526 11.9062 5.85938 11.638 6.32812 11.1016C6.70312 10.6693 6.89062 10.1042 6.89062 9.40625L8.375 8.70312H8.45312V10.2656L4.50781 13.3125Z" fill="#EFDC2C"/>
</svg>
