<svg width="15" height="15" viewBox="0 0 15 15" fill="none" xmlns="http://www.w3.org/2000/svg">
<g clip-path="url(#clip0_1048_615)">
<path d="M14.0625 11.25C14.0625 11.4986 13.9637 11.7371 13.7879 11.9129C13.6121 12.0887 13.3736 12.1875 13.125 12.1875H1.875C1.62636 12.1875 1.3879 12.0887 1.21209 11.9129C1.03627 11.7371 0.9375 11.4986 0.9375 11.25V5.625C0.9375 5.37636 1.03627 5.1379 1.21209 4.96209C1.3879 4.78627 1.62636 4.6875 1.875 4.6875H2.97375C3.71929 4.68709 4.43416 4.39069 4.96125 3.86344L5.73938 3.08719C5.91469 2.91182 6.15234 2.81305 6.40031 2.8125H8.59781C8.84643 2.81255 9.08485 2.91136 9.26063 3.08719L10.0369 3.86344C10.2981 4.12473 10.6082 4.332 10.9496 4.47339C11.2909 4.61479 11.6568 4.68754 12.0263 4.6875H13.125C13.3736 4.6875 13.6121 4.78627 13.7879 4.96209C13.9637 5.1379 14.0625 5.37636 14.0625 5.625V11.25ZM1.875 3.75C1.37772 3.75 0.900806 3.94754 0.549175 4.29917C0.197544 4.65081 0 5.12772 0 5.625L0 11.25C0 11.7473 0.197544 12.2242 0.549175 12.5758C0.900806 12.9275 1.37772 13.125 1.875 13.125H13.125C13.6223 13.125 14.0992 12.9275 14.4508 12.5758C14.8025 12.2242 15 11.7473 15 11.25V5.625C15 5.12772 14.8025 4.65081 14.4508 4.29917C14.0992 3.94754 13.6223 3.75 13.125 3.75H12.0263C11.529 3.74989 11.0522 3.55228 10.7006 3.20063L9.92438 2.42437C9.57283 2.07272 9.09599 1.87511 8.59875 1.875H6.40125C5.90401 1.87511 5.42717 2.07272 5.07563 2.42437L4.29937 3.20063C3.94783 3.55228 3.47099 3.74989 2.97375 3.75H1.875Z" fill="white"/>
<path d="M7.5 10.3125C6.8784 10.3125 6.28226 10.0656 5.84272 9.62603C5.40318 9.18649 5.15625 8.59035 5.15625 7.96875C5.15625 7.34715 5.40318 6.75101 5.84272 6.31147C6.28226 5.87193 6.8784 5.625 7.5 5.625C8.1216 5.625 8.71774 5.87193 9.15728 6.31147C9.59682 6.75101 9.84375 7.34715 9.84375 7.96875C9.84375 8.59035 9.59682 9.18649 9.15728 9.62603C8.71774 10.0656 8.1216 10.3125 7.5 10.3125ZM7.5 11.25C8.37024 11.25 9.20484 10.9043 9.82019 10.2889C10.4355 9.67359 10.7812 8.83899 10.7812 7.96875C10.7812 7.09851 10.4355 6.26391 9.82019 5.64856C9.20484 5.0332 8.37024 4.6875 7.5 4.6875C6.62976 4.6875 5.79516 5.0332 5.17981 5.64856C4.56445 6.26391 4.21875 7.09851 4.21875 7.96875C4.21875 8.83899 4.56445 9.67359 5.17981 10.2889C5.79516 10.9043 6.62976 11.25 7.5 11.25ZM2.8125 6.09375C2.8125 6.21807 2.76311 6.3373 2.67521 6.42521C2.5873 6.51311 2.46807 6.5625 2.34375 6.5625C2.21943 6.5625 2.1002 6.51311 2.01229 6.42521C1.92439 6.3373 1.875 6.21807 1.875 6.09375C1.875 5.96943 1.92439 5.8502 2.01229 5.76229C2.1002 5.67439 2.21943 5.625 2.34375 5.625C2.46807 5.625 2.5873 5.67439 2.67521 5.76229C2.76311 5.8502 2.8125 5.96943 2.8125 6.09375Z" fill="white"/>
</g>
<defs>
<clipPath id="clip0_1048_615">
<rect width="15" height="15" fill="white"/>
</clipPath>
</defs>
</svg>
