<svg width="60" height="60" viewBox="0 0 60 60" fill="none" xmlns="http://www.w3.org/2000/svg">
<path d="M30 7.5C25.0509 7.51552 20.2706 9.30051 16.5225 12.5325C13.65 15.0075 11.5687 18.2325 11.0325 21.4687C4.7475 22.8562 0 28.3312 0 34.9425C0 42.6225 6.405 48.75 14.1787 48.75H47.5763C54.3825 48.75 60 43.3875 60 36.6487C60 30.5137 55.3425 25.515 49.3725 24.6712C48.4613 14.9963 40.0875 7.5 30 7.5ZM38.8275 26.7975C39.0018 26.9718 39.1401 27.1788 39.2345 27.4066C39.3288 27.6343 39.3774 27.8785 39.3774 28.125C39.3774 28.3715 39.3288 28.6157 39.2345 28.8434C39.1401 29.0712 39.0018 29.2782 38.8275 29.4525C38.6532 29.6268 38.4462 29.7651 38.2184 29.8595C37.9907 29.9538 37.7465 30.0024 37.5 30.0024C37.2535 30.0024 37.0093 29.9538 36.7816 29.8595C36.5538 29.7651 36.3468 29.6268 36.1725 29.4525L31.875 25.1512V39.375C31.875 39.8723 31.6775 40.3492 31.3258 40.7008C30.9742 41.0525 30.4973 41.25 30 41.25C29.5027 41.25 29.0258 41.0525 28.6742 40.7008C28.3225 40.3492 28.125 39.8723 28.125 39.375V25.1512L23.8275 29.4525C23.4754 29.8046 22.9979 30.0024 22.5 30.0024C22.0021 30.0024 21.5246 29.8046 21.1725 29.4525C20.8204 29.1004 20.6226 28.6229 20.6226 28.125C20.6226 27.6271 20.8204 27.1496 21.1725 26.7975L28.6725 19.2975C28.8467 19.1229 29.0536 18.9844 29.2814 18.8898C29.5092 18.7953 29.7534 18.7466 30 18.7466C30.2466 18.7466 30.4908 18.7953 30.7186 18.8898C30.9464 18.9844 31.1533 19.1229 31.3275 19.2975L38.8275 26.7975Z" fill="#66C7BB"/>
</svg>
