<svg width="16" height="16" viewBox="0 0 16 16" fill="none" xmlns="http://www.w3.org/2000/svg">
<path d="M1.33203 2.667C1.33203 1.194 4.31703 0 7.99903 0C11.681 0 14.666 1.194 14.666 2.667V4C14.666 5.473 11.681 6.667 7.99903 6.667C4.31703 6.667 1.33203 5.473 1.33203 4V2.667Z" fill="white"/>
<path d="M1.33203 6.33398V9.33398C1.33203 10.805 4.31703 12 7.99903 12C11.681 12 14.666 10.806 14.666 9.33298V6.33398C14.2157 6.65839 13.7257 6.92388 13.208 7.12398C11.809 7.68398 9.96603 7.99998 7.99903 7.99998C6.03303 7.99998 4.19003 7.68298 2.79103 7.12398C2.27333 6.9239 1.78336 6.65841 1.33303 6.33398H1.33203Z" fill="white"/>
<path d="M14.666 11.668C14.2156 11.9921 13.7257 12.2572 13.208 12.457C11.808 13.017 9.96603 13.333 7.99803 13.333C6.03203 13.333 4.18903 13.017 2.79003 12.457C2.27234 12.2569 1.78237 11.9914 1.33203 11.667V13.333C1.33203 14.806 4.31703 16 7.99903 16C11.681 16 14.666 14.806 14.666 13.333V11.668Z" fill="white"/>
</svg>
