<svg width="16" height="16" viewBox="0 0 16 16" fill="none" xmlns="http://www.w3.org/2000/svg">
<path d="M4.71511 6.542L3.34311 7.914C2.78045 8.47666 2.46436 9.23978 2.46436 10.0355C2.46436 10.8312 2.78045 11.5943 3.34311 12.157C3.90577 12.7197 4.66889 13.0358 5.46461 13.0358C6.26033 13.0358 7.02345 12.7197 7.58611 12.157L9.41411 10.328C9.7534 9.98866 10.0063 9.57287 10.1517 9.11555C10.2971 8.65822 10.3306 8.1727 10.2495 7.69974C10.1684 7.22677 9.97497 6.78016 9.68554 6.3974C9.39611 6.01464 9.01909 5.7069 8.58611 5.5L8.00011 6.086C7.94062 6.1456 7.88888 6.21246 7.84611 6.285C8.18064 6.38117 8.48427 6.56298 8.727 6.81246C8.96973 7.06194 9.14315 7.37044 9.23011 7.70748C9.31707 8.04452 9.31457 8.39842 9.22284 8.73419C9.13112 9.06996 8.95335 9.37598 8.70711 9.622L6.88011 11.45C6.50483 11.8253 5.99584 12.0361 5.46511 12.0361C4.93438 12.0361 4.42539 11.8253 4.05011 11.45C3.67483 11.0747 3.464 10.5657 3.464 10.035C3.464 9.50427 3.67483 8.99528 4.05011 8.62L4.84311 7.828C4.73122 7.40873 4.688 6.9741 4.71511 6.541V6.542Z" fill="#212529"/>
<path d="M6.58605 4.6716C6.24675 5.01094 5.99381 5.42672 5.84846 5.88405C5.7031 6.34138 5.66957 6.8269 5.75069 7.29986C5.8318 7.77283 6.02519 8.21943 6.31462 8.60219C6.60405 8.98495 6.98107 9.2927 7.41405 9.4996L8.18905 8.7236C7.85 8.63265 7.54085 8.45407 7.29268 8.2058C7.04451 7.95753 6.86606 7.64831 6.77526 7.30922C6.68446 6.97013 6.6845 6.61311 6.77539 6.27404C6.86628 5.93498 7.04482 5.62581 7.29305 5.3776L9.12005 3.5496C9.49533 3.17432 10.0043 2.96349 10.535 2.96349C11.0658 2.96349 11.5748 3.17432 11.95 3.5496C12.3253 3.92488 12.5362 4.43387 12.5362 4.9646C12.5362 5.49533 12.3253 6.00432 11.95 6.3796L11.157 7.1716C11.269 7.5916 11.312 8.0266 11.285 8.4586L12.657 7.0866C13.2197 6.52394 13.5358 5.76081 13.5358 4.9651C13.5358 4.16938 13.2197 3.40625 12.657 2.8436C12.0944 2.28094 11.3313 1.96484 10.5355 1.96484C9.73983 1.96484 8.97671 2.28094 8.41405 2.8436L6.58605 4.6716Z" fill="#212529"/>
</svg>
