<svg width="9" height="12" viewBox="0 0 9 12" fill="none" xmlns="http://www.w3.org/2000/svg">
<path d="M4.5 0.75C4.97739 0.75 5.43523 0.908035 5.77279 1.18934C6.11036 1.47064 6.3 1.85218 6.3 2.25V5.25H2.7V2.25C2.7 1.85218 2.88964 1.47064 3.22721 1.18934C3.56477 0.908035 4.02261 0.75 4.5 0.75V0.75ZM7.2 5.25V2.25C7.2 1.65326 6.91554 1.08097 6.40919 0.65901C5.90284 0.237053 5.21608 0 4.5 0C3.78392 0 3.09716 0.237053 2.59081 0.65901C2.08446 1.08097 1.8 1.65326 1.8 2.25V5.25C1.32261 5.25 0.864773 5.40804 0.527208 5.68934C0.189642 5.97064 0 6.35218 0 6.75V10.5C0 10.8978 0.189642 11.2794 0.527208 11.5607C0.864773 11.842 1.32261 12 1.8 12H7.2C7.67739 12 8.13523 11.842 8.47279 11.5607C8.81036 11.2794 9 10.8978 9 10.5V6.75C9 6.35218 8.81036 5.97064 8.47279 5.68934C8.13523 5.40804 7.67739 5.25 7.2 5.25V5.25ZM1.8 6H7.2C7.43869 6 7.66761 6.07902 7.8364 6.21967C8.00518 6.36032 8.1 6.55109 8.1 6.75V10.5C8.1 10.6989 8.00518 10.8897 7.8364 11.0303C7.66761 11.171 7.43869 11.25 7.2 11.25H1.8C1.56131 11.25 1.33239 11.171 1.1636 11.0303C0.994821 10.8897 0.9 10.6989 0.9 10.5V6.75C0.9 6.55109 0.994821 6.36032 1.1636 6.21967C1.33239 6.07902 1.56131 6 1.8 6Z" fill="#212529"/>
</svg>
