<?xml version="1.0" encoding="utf-8"?>
<!-- Generator: Adobe Illustrator 15.1.0, SVG Export Plug-In . SVG Version: 6.00 Build 0)  -->
<!DOCTYPE svg PUBLIC "-//W3C//DTD SVG 1.1//EN" "http://www.w3.org/Graphics/SVG/1.1/DTD/svg11.dtd">
<svg version="1.1" id="Layer_1" xmlns="http://www.w3.org/2000/svg" xmlns:xlink="http://www.w3.org/1999/xlink" x="0px" y="0px"
	 width="44px" height="44px" viewBox="0 0 44 44" enable-background="new 0 0 44 44" xml:space="preserve">
<path fill="#212529" d="M9.185,8.233c0.756-0.929,1.87-1.358,2.954-1.358h19.723c1.081,0,2.195,0.429,2.953,1.358
	c1.59,1.947,5.061,6.969,5.061,13.767s-3.471,11.816-5.061,13.767c-0.758,0.929-1.869,1.358-2.953,1.358H12.139
	c-1.083,0-2.197-0.43-2.954-1.358c-1.589-1.95-5.06-6.969-5.06-13.767S7.596,10.183,9.185,8.233z M12.139,9.625
	c-0.154-0.007-0.308,0.02-0.451,0.08c-0.142,0.06-0.269,0.151-0.372,0.267C9.897,11.712,6.875,16.123,6.875,22
	s3.022,10.285,4.441,12.028c0.165,0.2,0.448,0.347,0.825,0.347h19.718c0.376,0,0.659-0.146,0.824-0.347
	c1.42-1.741,4.441-6.151,4.441-12.028s-3.021-10.285-4.441-12.028c-0.103-0.116-0.23-0.208-0.373-0.267
	c-0.143-0.06-0.297-0.087-0.451-0.08H12.141H12.139z"/>
<path fill="#212529" d="M16.5,15.125c0.365,0,0.714,0.145,0.972,0.403s0.403,0.607,0.403,0.972v4.125
	c0,0.365-0.145,0.714-0.403,0.972S16.865,22,16.5,22s-0.714-0.145-0.972-0.403s-0.403-0.607-0.403-0.972V16.5
	c0-0.365,0.145-0.714,0.403-0.972S16.135,15.125,16.5,15.125z M27.5,15.125c0.365,0,0.715,0.145,0.973,0.403
	s0.402,0.607,0.402,0.972v4.125c0,0.365-0.145,0.714-0.402,0.972S27.865,22,27.5,22s-0.715-0.145-0.973-0.403
	s-0.402-0.607-0.402-0.972V16.5c0-0.365,0.145-0.714,0.402-0.972S27.135,15.125,27.5,15.125z M19.25,27.5v2.75h5.5V27.5
	c0-0.729-0.289-1.429-0.806-1.944C23.429,25.039,22.729,24.75,22,24.75s-1.429,0.289-1.944,0.806
	C19.54,26.071,19.25,26.771,19.25,27.5z"/>
</svg>
