<?xml version="1.0" encoding="utf-8"?>
<!-- Generator: Adobe Illustrator 15.1.0, SVG Export Plug-In . SVG Version: 6.00 Build 0)  -->
<!DOCTYPE svg PUBLIC "-//W3C//DTD SVG 1.1//EN" "http://www.w3.org/Graphics/SVG/1.1/DTD/svg11.dtd">
<svg version="1.1" id="Layer_1" xmlns="http://www.w3.org/2000/svg" xmlns:xlink="http://www.w3.org/1999/xlink" x="0px" y="0px"
	 width="38px" height="38px" viewBox="0 0 38 38" enable-background="new 0 0 38 38" xml:space="preserve">
<g>
	<defs>
		<rect id="SVGID_1_" width="38" height="38"/>
	</defs>
	<clipPath id="SVGID_2_">
		<use xlink:href="#SVGID_1_"  overflow="visible"/>
	</clipPath>
	<g clip-path="url(#SVGID_2_)">
		<path fill="#212529" d="M1.188,7.125l0.095,2.066c-0.627,0.911-0.914,2.013-0.813,3.113L1.983,28.93
			c0.107,1.18,0.652,2.277,1.527,3.077s2.017,1.243,3.202,1.243h14.663v-2.375H6.712c-0.593,0-1.164-0.223-1.601-0.623
			c-0.438-0.399-0.709-0.948-0.763-1.538L2.836,12.089c-0.03-0.329,0.009-0.66,0.115-0.973c0.105-0.313,0.274-0.6,0.497-0.843
			s0.494-0.438,0.795-0.571C4.545,9.569,4.872,9.5,5.201,9.5h27.598c0.33,0,0.656,0.069,0.958,0.202
			c0.302,0.133,0.573,0.328,0.796,0.571s0.392,0.531,0.496,0.843c0.105,0.313,0.145,0.644,0.115,0.973L34.533,19h2.387l0.607-6.695
			c0.06-0.657-0.018-1.319-0.229-1.945s-0.549-1.2-0.994-1.688c-0.444-0.487-0.986-0.876-1.59-1.143
			c-0.604-0.266-1.256-0.404-1.916-0.404h-9.457c-1.26,0-2.468-0.501-3.358-1.392l-1.967-1.967
			c-0.891-0.891-2.099-1.391-3.358-1.392H5.938c-1.26,0-2.468,0.5-3.359,1.391C1.688,4.657,1.188,5.865,1.188,7.125z M14.659,4.75
			c0.63,0,1.233,0.25,1.679,0.696l1.679,1.679H5.201c-0.57,0-1.116,0.1-1.622,0.285L3.563,7.078
			c0.013-0.622,0.268-1.214,0.712-1.649C4.719,4.994,5.316,4.75,5.938,4.75H14.659z"/>
		<path fill="#212529" d="M37.653,24.097c0.11,0.11,0.198,0.241,0.259,0.386c0.059,0.145,0.09,0.299,0.09,0.455
			s-0.031,0.311-0.09,0.455c-0.061,0.145-0.148,0.275-0.259,0.386l-7.125,7.125c-0.223,0.223-0.524,0.348-0.84,0.348
			c-0.314,0-0.616-0.125-0.839-0.348l-3.563-3.563c-0.224-0.223-0.349-0.524-0.35-0.84c0-0.315,0.125-0.617,0.348-0.841
			c0.223-0.223,0.525-0.348,0.84-0.348c0.315,0,0.617,0.125,0.841,0.347l2.722,2.724l6.284-6.286c0.11-0.11,0.241-0.198,0.386-0.258
			s0.299-0.091,0.455-0.091s0.311,0.031,0.455,0.091S37.543,23.986,37.653,24.097z"/>
	</g>
</g>
</svg>
