<?xml version="1.0" encoding="utf-8"?>
<!-- Generator: Adobe Illustrator 15.1.0, SVG Export Plug-In . SVG Version: 6.00 Build 0)  -->
<!DOCTYPE svg PUBLIC "-//W3C//DTD SVG 1.1//EN" "http://www.w3.org/Graphics/SVG/1.1/DTD/svg11.dtd">
<svg version="1.1" id="Layer_1" xmlns="http://www.w3.org/2000/svg" xmlns:xlink="http://www.w3.org/1999/xlink" x="0px" y="0px"
	 width="36px" height="36px" viewBox="0 0 36 36" enable-background="new 0 0 36 36" xml:space="preserve">
<g>
	<defs>
		<rect id="SVGID_1_" width="36" height="36"/>
	</defs>
	<clipPath id="SVGID_2_">
		<use xlink:href="#SVGID_1_"  overflow="visible"/>
	</clipPath>
	<g clip-path="url(#SVGID_2_)">
		<path fill="#EFDC2C" d="M18,10.696c-0.959,0-1.909,0.189-2.795,0.556c-0.886,0.367-1.691,0.905-2.369,1.583
			c-0.678,0.678-1.216,1.483-1.583,2.37c-0.367,0.886-0.556,1.835-0.556,2.795c0,0.959,0.189,1.908,0.556,2.795
			c0.367,0.886,0.905,1.691,1.583,2.369c0.678,0.678,1.483,1.217,2.369,1.583c0.886,0.367,1.836,0.556,2.795,0.556
			c1.938,0,3.795-0.77,5.164-2.139c1.37-1.369,2.14-3.227,2.14-5.164c0-1.937-0.77-3.795-2.14-5.165
			C21.795,11.466,19.938,10.696,18,10.696z M12.946,18c0-1.34,0.533-2.626,1.48-3.574s2.233-1.48,3.573-1.48
			c1.34,0,2.625,0.532,3.573,1.48s1.48,2.233,1.48,3.574c0,1.34-0.532,2.625-1.48,3.573S19.34,23.053,18,23.053
			c-1.34,0-2.625-0.531-3.573-1.479S12.946,19.34,12.946,18z"/>
		<path fill="#EFDC2C" d="M22.041,3.021c-1.186-4.027-6.896-4.027-8.082,0l-0.212,0.718c-0.083,0.281-0.227,0.54-0.423,0.758
			c-0.196,0.218-0.438,0.389-0.708,0.501c-0.271,0.112-0.563,0.162-0.856,0.147c-0.293-0.016-0.578-0.097-0.835-0.237l-0.657-0.36
			c-3.69-2.007-7.724,2.03-5.715,5.717l0.357,0.657c0.14,0.257,0.221,0.542,0.237,0.835c0.015,0.292-0.035,0.585-0.147,0.856
			c-0.112,0.271-0.284,0.513-0.501,0.708c-0.218,0.196-0.477,0.341-0.758,0.423l-0.718,0.212c-4.027,1.186-4.027,6.896,0,8.082
			l0.718,0.211c0.281,0.083,0.54,0.229,0.758,0.424c0.218,0.195,0.389,0.438,0.501,0.709c0.112,0.271,0.162,0.563,0.147,0.855
			c-0.016,0.293-0.097,0.578-0.237,0.836l-0.36,0.656c-2.007,3.69,2.027,7.727,5.717,5.716l0.657-0.358
			c0.257-0.14,0.542-0.221,0.835-0.236c0.292-0.016,0.585,0.035,0.856,0.146c0.271,0.113,0.513,0.284,0.708,0.502
			c0.196,0.219,0.341,0.477,0.423,0.758l0.212,0.719c1.186,4.027,6.896,4.027,8.082,0l0.211-0.719
			c0.083-0.281,0.229-0.539,0.424-0.758c0.195-0.218,0.438-0.389,0.709-0.502c0.271-0.111,0.563-0.162,0.855-0.146
			s0.578,0.097,0.836,0.236l0.656,0.36c3.69,2.009,7.727-2.029,5.716-5.718l-0.358-0.656c-0.14-0.258-0.221-0.543-0.236-0.836
			s0.035-0.585,0.146-0.855c0.113-0.271,0.284-0.514,0.502-0.709c0.219-0.195,0.477-0.341,0.758-0.424l0.719-0.211
			c4.027-1.186,4.027-6.896,0-8.082l-0.719-0.212c-0.281-0.083-0.539-0.227-0.758-0.423c-0.218-0.196-0.389-0.438-0.502-0.708
			c-0.111-0.271-0.162-0.563-0.146-0.856c0.016-0.293,0.097-0.578,0.236-0.835l0.36-0.657c2.009-3.69-2.029-7.724-5.718-5.715
			l-0.656,0.357c-0.258,0.14-0.543,0.221-0.836,0.237c-0.293,0.015-0.585-0.035-0.855-0.147c-0.271-0.112-0.514-0.284-0.709-0.501
			c-0.195-0.218-0.341-0.477-0.424-0.758L22.041,3.021z M16.117,3.658c0.553-1.878,3.213-1.878,3.766,0l0.212,0.718
			c0.178,0.604,0.488,1.159,0.909,1.626c0.42,0.468,0.939,0.835,1.521,1.076c0.58,0.241,1.208,0.348,1.836,0.315
			c0.628-0.034,1.24-0.207,1.793-0.508l0.654-0.36c1.719-0.934,3.6,0.945,2.664,2.666l-0.357,0.657
			c-0.301,0.552-0.475,1.165-0.508,1.792c-0.032,0.628,0.075,1.255,0.316,1.836c0.24,0.581,0.607,1.1,1.076,1.521
			c0.467,0.42,1.023,0.73,1.626,0.908l0.716,0.211c1.879,0.553,1.879,3.213,0,3.766l-0.719,0.212
			c-0.603,0.178-1.158,0.488-1.626,0.909c-0.468,0.42-0.835,0.939-1.075,1.521c-0.241,0.58-0.349,1.208-0.314,1.836
			c0.033,0.628,0.207,1.24,0.508,1.793l0.359,0.654c0.934,1.719-0.945,3.6-2.666,2.664l-0.654-0.357
			c-0.553-0.301-1.166-0.475-1.793-0.508c-0.629-0.033-1.256,0.074-1.838,0.314c-0.58,0.241-1.1,0.609-1.521,1.076
			c-0.421,0.469-0.731,1.024-0.908,1.628l-0.212,0.716c-0.553,1.879-3.213,1.879-3.766,0l-0.211-0.719
			c-0.178-0.603-0.489-1.158-0.909-1.625c-0.42-0.467-0.94-0.835-1.521-1.075c-0.581-0.241-1.208-0.349-1.835-0.315
			s-1.24,0.207-1.792,0.508l-0.657,0.359c-1.719,0.934-3.6-0.945-2.664-2.666l0.357-0.654c0.301-0.553,0.476-1.166,0.509-1.793
			c0.034-0.629-0.074-1.257-0.314-1.838c-0.241-0.582-0.608-1.102-1.076-1.521c-0.468-0.422-1.024-0.732-1.627-0.91l-0.718-0.211
			c-1.878-0.554-1.878-3.213,0-3.767l0.718-0.211c0.603-0.178,1.158-0.488,1.625-0.909c0.467-0.42,0.834-0.939,1.075-1.52
			c0.241-0.58,0.348-1.207,0.315-1.834c-0.033-0.627-0.206-1.24-0.506-1.792l-0.36-0.657c-0.934-1.719,0.945-3.6,2.666-2.664
			l0.657,0.357c0.552,0.301,1.165,0.474,1.792,0.507c0.627,0.033,1.255-0.075,1.835-0.315c0.581-0.241,1.101-0.608,1.521-1.075
			c0.42-0.468,0.73-1.023,0.909-1.626L16.117,3.658z"/>
	</g>
</g>
</svg>
