<?xml version="1.0" encoding="utf-8"?>
<!-- Generator: Adobe Illustrator 15.1.0, SVG Export Plug-In . SVG Version: 6.00 Build 0)  -->
<!DOCTYPE svg PUBLIC "-//W3C//DTD SVG 1.1//EN" "http://www.w3.org/Graphics/SVG/1.1/DTD/svg11.dtd">
<svg version="1.1" id="Layer_1" xmlns="http://www.w3.org/2000/svg" xmlns:xlink="http://www.w3.org/1999/xlink" x="0px" y="0px"
	 width="29px" height="35px" viewBox="0 0 29 35" enable-background="new 0 0 29 35" xml:space="preserve">
<path fill="#212529" d="M28.505,0.186c0.152,0.1,0.276,0.235,0.363,0.393S29,0.914,29,1.094V17.5c0,0.218-0.066,0.432-0.191,0.613
	c-0.125,0.18-0.303,0.32-0.51,0.402L27.885,17.5l0.414,1.016l-0.006,0.002l-0.014,0.006l-0.051,0.02
	c-0.293,0.115-0.589,0.225-0.887,0.328c-0.588,0.209-1.406,0.488-2.335,0.766c-1.82,0.552-4.191,1.145-6.046,1.145
	c-1.889,0-3.453-0.612-4.813-1.148l-0.063-0.021c-1.414-0.559-2.619-1.018-4.046-1.018c-1.562,0-3.654,0.503-5.437,1.043
	c-0.798,0.244-1.589,0.511-2.371,0.799v13.471c0,0.29-0.118,0.568-0.327,0.773C1.695,34.885,1.411,35,1.115,35
	s-0.58-0.115-0.789-0.32S0,34.196,0,33.906V1.094c0-0.29,0.118-0.568,0.327-0.773S0.819,0,1.115,0s0.58,0.115,0.789,0.32
	c0.209,0.205,0.327,0.483,0.327,0.773V1.71c0.504-0.173,1.106-0.372,1.762-0.568C5.813,0.595,8.187,0,10.039,0
	c1.874,0,3.399,0.606,4.731,1.135l0.096,0.04c1.388,0.549,2.597,1.013,4.095,1.013c1.563,0,3.654-0.503,5.438-1.043
	c1.016-0.311,2.02-0.658,3.009-1.041l0.042-0.016l0.01-0.004h0.002 M26.77,2.671c-0.491,0.171-1.07,0.365-1.709,0.558
	c-1.807,0.551-4.176,1.145-6.1,1.145c-1.976,0-3.551-0.626-4.914-1.168l-0.018-0.006c-1.399-0.551-2.565-1.011-3.991-1.011
	c-1.493,0-3.583,0.501-5.387,1.045C3.837,3.479,3.03,3.747,2.231,4.036v14.071c0.491-0.17,1.071-0.365,1.708-0.557
	c1.807-0.553,4.176-1.144,6.099-1.144c1.889,0,3.453,0.612,4.814,1.148l0.063,0.022c1.414,0.558,2.618,1.017,4.046,1.017
	c1.49,0,3.584-0.501,5.388-1.046c0.813-0.246,1.621-0.514,2.421-0.803V2.673V2.671z"/>
</svg>
