<?xml version="1.0" encoding="utf-8"?>
<!-- Generator: Adobe Illustrator 15.1.0, SVG Export Plug-In . SVG Version: 6.00 Build 0)  -->
<!DOCTYPE svg PUBLIC "-//W3C//DTD SVG 1.1//EN" "http://www.w3.org/Graphics/SVG/1.1/DTD/svg11.dtd">
<svg version="1.1" id="Layer_1" xmlns="http://www.w3.org/2000/svg" xmlns:xlink="http://www.w3.org/1999/xlink" x="0px" y="0px"
	 width="30px" height="30px" viewBox="0 0 30 30" enable-background="new 0 0 30 30" xml:space="preserve">
<path fill="#EFDC2C" d="M11.563,10H2.188C0.981,10,0,9.019,0,7.813V2.188C0,0.981,0.981,0,2.188,0h9.375
	c1.207,0,2.188,0.981,2.188,2.188v5.625C13.75,9.019,12.769,10,11.563,10z M2.188,1.875c-0.172,0-0.313,0.14-0.313,0.313v5.625
	c0,0.172,0.14,0.313,0.313,0.313h9.375c0.172,0,0.313-0.14,0.313-0.313V2.188c0-0.172-0.14-0.313-0.313-0.313H2.188z"/>
<path fill="#EFDC2C" d="M11.563,30H2.188C0.981,30,0,29.02,0,27.813V14.688C0,13.481,0.981,12.5,2.188,12.5h9.375
	c1.207,0,2.188,0.981,2.188,2.188v13.125C13.75,29.02,12.769,30,11.563,30z M2.188,14.375c-0.172,0-0.313,0.14-0.313,0.313v13.125
	c0,0.172,0.14,0.313,0.313,0.313h9.375c0.172,0,0.313-0.141,0.313-0.313V14.688c0-0.172-0.14-0.313-0.313-0.313H2.188z"/>
<path fill="#EFDC2C" d="M27.813,30h-9.375c-1.206,0-2.188-0.98-2.188-2.188v-5.625c0-1.206,0.981-2.188,2.188-2.188h9.375
	C29.02,20,30,20.981,30,22.188v5.625C30,29.02,29.02,30,27.813,30z M18.438,21.875c-0.172,0-0.313,0.141-0.313,0.313v5.625
	c0,0.172,0.141,0.313,0.313,0.313h9.375c0.172,0,0.313-0.141,0.313-0.313v-5.625c0-0.172-0.141-0.313-0.313-0.313H18.438z"/>
<path fill="#EFDC2C" d="M27.813,17.5h-9.375c-1.206,0-2.188-0.98-2.188-2.188V2.188C16.25,0.981,17.231,0,18.438,0h9.375
	C29.02,0,30,0.981,30,2.188v13.125C30,16.52,29.02,17.5,27.813,17.5z M18.438,1.875c-0.172,0-0.313,0.14-0.313,0.313v13.125
	c0,0.172,0.141,0.313,0.313,0.313h9.375c0.172,0,0.313-0.14,0.313-0.313V2.188c0-0.172-0.141-0.313-0.313-0.313H18.438z"/>
</svg>
