<?xml version="1.0" encoding="utf-8"?>
<!-- Generator: Adobe Illustrator 15.1.0, SVG Export Plug-In . SVG Version: 6.00 Build 0)  -->
<!DOCTYPE svg PUBLIC "-//W3C//DTD SVG 1.1//EN" "http://www.w3.org/Graphics/SVG/1.1/DTD/svg11.dtd">
<svg version="1.1" id="Layer_1" xmlns="http://www.w3.org/2000/svg" xmlns:xlink="http://www.w3.org/1999/xlink" x="0px" y="0px"
	 width="40px" height="40px" viewBox="0 0 40 40" enable-background="new 0 0 40 40" xml:space="preserve">
<path fill="#EFDC2C" d="M34.428,11.263L20.582,3.485C20.405,3.386,20.205,3.333,20,3.333s-0.405,0.052-0.582,0.151L5.572,11.263
	C5.398,11.36,5.253,11.5,5.153,11.669C5.053,11.837,5,12.028,5,12.223v15.555c0,0.195,0.053,0.385,0.153,0.554
	c0.1,0.169,0.245,0.309,0.419,0.407l13.846,7.777c0.177,0.1,0.377,0.151,0.582,0.151s0.405-0.052,0.582-0.151l13.846-7.777
	c0.174-0.099,0.318-0.238,0.419-0.407S35,27.973,35,27.777V12.223c0-0.194-0.053-0.385-0.153-0.554S34.602,11.36,34.428,11.263z
	 M20,5.731l11.557,6.491L20,18.713L8.443,12.223L20,5.731z M7.308,14.156l11.539,6.481v12.985L7.308,27.141V14.156z M21.154,33.622
	V20.638l11.538-6.481v12.984L21.154,33.622z"/>
</svg>
