<?xml version="1.0" encoding="utf-8"?>
<!-- Generator: Adobe Illustrator 15.1.0, SVG Export Plug-In . SVG Version: 6.00 Build 0)  -->
<!DOCTYPE svg PUBLIC "-//W3C//DTD SVG 1.1//EN" "http://www.w3.org/Graphics/SVG/1.1/DTD/svg11.dtd">
<svg version="1.1" id="Layer_1" xmlns="http://www.w3.org/2000/svg" xmlns:xlink="http://www.w3.org/1999/xlink" x="0px" y="0px"
	 width="37px" height="37px" viewBox="0 0 37 37" enable-background="new 0 0 37 37" xml:space="preserve">
<g>
	<defs>
		<rect id="SVGID_1_" width="37" height="37"/>
	</defs>
	<clipPath id="SVGID_2_">
		<use xlink:href="#SVGID_1_"  overflow="visible"/>
	</clipPath>
	<g clip-path="url(#SVGID_2_)">
		<path fill="#EFDC2C" d="M11.563,0h18.5c1.227,0,2.402,0.487,3.271,1.354c0.867,0.868,1.354,2.044,1.354,3.271V27.75
			c0,1.227-0.487,2.402-1.354,3.271c-0.868,0.867-2.044,1.354-3.271,1.354c0,1.227-0.487,2.402-1.354,3.271
			C27.84,36.513,26.664,37,25.438,37h-18.5c-1.227,0-2.403-0.487-3.271-1.354c-0.867-0.868-1.354-2.044-1.354-3.271h2.313
			c0,0.613,0.244,1.201,0.677,1.635s1.022,0.678,1.635,0.678h18.5c0.613,0,1.201-0.244,1.635-0.678s0.678-1.021,0.678-1.635V9.25
			c0-0.613-0.244-1.202-0.678-1.635s-1.021-0.677-1.635-0.677h-18.5c-0.613,0-1.202,0.244-1.635,0.677S4.625,8.637,4.625,9.25H2.313
			c0-1.227,0.487-2.403,1.354-3.271c0.868-0.867,2.044-1.354,3.271-1.354h18.5c1.227,0,2.402,0.487,3.271,1.354
			c0.867,0.868,1.354,2.044,1.354,3.271v20.813c0.613,0,1.201-0.244,1.635-0.678s0.678-1.021,0.678-1.635V4.625
			c0-0.613-0.244-1.202-0.678-1.635s-1.021-0.677-1.635-0.677h-18.5c-0.613,0-1.202,0.244-1.635,0.677S9.25,4.012,9.25,4.625H6.938
			c0-1.227,0.487-2.403,1.354-3.271C9.16,0.487,10.336,0,11.563,0L11.563,0z"/>
		<path fill="#EFDC2C" d="M2.313,13.875v-1.156c0-0.307,0.122-0.601,0.339-0.817c0.217-0.217,0.511-0.339,0.817-0.339
			s0.601,0.122,0.817,0.339c0.217,0.217,0.339,0.511,0.339,0.817v1.156h1.156c0.307,0,0.601,0.122,0.817,0.339
			c0.217,0.217,0.339,0.511,0.339,0.817s-0.122,0.601-0.339,0.817c-0.217,0.217-0.511,0.339-0.817,0.339H1.156
			c-0.307,0-0.601-0.122-0.817-0.339C0.122,15.632,0,15.338,0,15.031s0.122-0.601,0.339-0.817c0.217-0.217,0.511-0.339,0.817-0.339
			H2.313z M2.313,20.813v-1.156c0-0.307,0.122-0.601,0.339-0.817C2.868,18.622,3.162,18.5,3.469,18.5s0.601,0.122,0.817,0.339
			c0.217,0.217,0.339,0.511,0.339,0.817v1.156h1.156c0.307,0,0.601,0.121,0.817,0.339c0.217,0.217,0.339,0.511,0.339,0.817
			s-0.122,0.601-0.339,0.817c-0.217,0.218-0.511,0.339-0.817,0.339H1.156c-0.307,0-0.601-0.121-0.817-0.339
			C0.122,22.569,0,22.275,0,21.969s0.122-0.601,0.339-0.817c0.217-0.218,0.511-0.339,0.817-0.339H2.313z M2.313,26.594v1.156H1.156
			c-0.307,0-0.601,0.121-0.817,0.339C0.122,28.306,0,28.6,0,28.906s0.122,0.601,0.339,0.817c0.217,0.218,0.511,0.339,0.817,0.339
			h4.625c0.307,0,0.601-0.121,0.817-0.339c0.217-0.217,0.339-0.511,0.339-0.817s-0.122-0.601-0.339-0.817
			c-0.217-0.218-0.511-0.339-0.817-0.339H4.625v-1.156c0-0.307-0.122-0.601-0.339-0.817c-0.217-0.218-0.511-0.339-0.817-0.339
			s-0.601,0.121-0.817,0.339C2.435,25.993,2.313,26.287,2.313,26.594L2.313,26.594z"/>
	</g>
</g>
</svg>
