<svg width="20" height="20" viewBox="0 0 20 20" fill="none" xmlns="http://www.w3.org/2000/svg">
<path d="M13.4875 16.14L11.47 14.1212C10.6898 14.4002 9.84643 14.4519 9.03803 14.2702C8.22962 14.0886 7.48941 13.6811 6.90352 13.0952C6.31764 12.5093 5.91018 11.7691 5.72854 10.9607C5.5469 10.1523 5.59856 9.30895 5.8775 8.52875L3.3025 5.95375C1.1725 7.8475 0 10 0 10C0 10 3.75 16.875 10 16.875C11.2005 16.8708 12.3874 16.6207 13.4875 16.14V16.14ZM6.5125 3.86C7.61257 3.37928 8.79949 3.12913 10 3.125C16.25 3.125 20 10 20 10C20 10 18.8263 12.1512 16.6988 14.0475L14.1212 11.47C14.4002 10.6898 14.4519 9.84643 14.2702 9.03803C14.0886 8.22962 13.6811 7.48941 13.0952 6.90352C12.5093 6.31764 11.7691 5.91018 10.9607 5.72854C10.1523 5.5469 9.30895 5.59856 8.52875 5.8775L6.5125 3.86125V3.86Z" fill="#888888"/>
<path d="M6.90637 9.55762C6.83761 10.038 6.88167 10.5278 7.03507 10.9882C7.18847 11.4486 7.44698 11.867 7.79013 12.2101C8.13328 12.5533 8.55163 12.8118 9.01203 12.9652C9.47243 13.1186 9.96223 13.1626 10.4426 13.0939L6.90512 9.55762H6.90637ZM13.0939 10.4426L9.55762 6.90512C10.038 6.83636 10.5278 6.88042 10.9882 7.03382C11.4486 7.18722 11.867 7.44573 12.2101 7.78888C12.5533 8.13203 12.8118 8.55038 12.9652 9.01078C13.1186 9.47118 13.1626 9.96098 13.0939 10.4414V10.4426ZM17.0576 17.9426L2.05762 2.94262L2.94262 2.05762L17.9426 17.0576L17.0576 17.9426Z" fill="#888888"/>
</svg>
