<?xml version="1.0" encoding="utf-8"?>
<!-- Generator: Adobe Illustrator 15.1.0, SVG Export Plug-In . SVG Version: 6.00 Build 0)  -->
<!DOCTYPE svg PUBLIC "-//W3C//DTD SVG 1.1//EN" "http://www.w3.org/Graphics/SVG/1.1/DTD/svg11.dtd">
<svg version="1.1" id="Layer_1" xmlns="http://www.w3.org/2000/svg" xmlns:xlink="http://www.w3.org/1999/xlink" x="0px" y="0px"
	 width="12px" height="12px" viewBox="0 0 12 12" enable-background="new 0 0 12 12" xml:space="preserve">
<g>
	<defs>
		<rect id="SVGID_1_" width="12" height="12"/>
	</defs>
	<clipPath id="SVGID_2_">
		<use xlink:href="#SVGID_1_"  overflow="visible"/>
	</clipPath>
	<g clip-path="url(#SVGID_2_)">
		<path fill="#DEE2E6" d="M10.123,0.596l0.112-0.112c0.084-0.084,0.185-0.151,0.294-0.196s0.228-0.069,0.346-0.069
			c0.119,0,0.237,0.023,0.348,0.069c0.109,0.046,0.209,0.112,0.293,0.197c0.084,0.084,0.15,0.184,0.197,0.293
			c0.045,0.11,0.068,0.228,0.068,0.347c0,0.119-0.023,0.237-0.069,0.347S11.6,1.681,11.516,1.765l-0.111,0.111
			c0.191,0.214,0.293,0.494,0.284,0.781c-0.008,0.287-0.126,0.56-0.329,0.763l-7.719,7.72c-0.048,0.048-0.109,0.082-0.175,0.098
			l-3,0.75c-0.063,0.016-0.128,0.016-0.191-0.002S0.156,11.936,0.11,11.89c-0.045-0.046-0.079-0.103-0.096-0.165
			c-0.017-0.063-0.018-0.128-0.002-0.19l0.75-3c0.017-0.065,0.05-0.126,0.098-0.175l7.232-7.231
			C8.019,1.078,7.931,1.054,7.843,1.062C7.754,1.069,7.672,1.108,7.609,1.17L5.141,3.64C5.106,3.675,5.064,3.703,5.019,3.722
			C4.973,3.741,4.924,3.75,4.875,3.75S4.777,3.741,4.731,3.722S4.645,3.675,4.609,3.64C4.575,3.605,4.547,3.564,4.528,3.519
			C4.509,3.473,4.5,3.424,4.5,3.375s0.01-0.098,0.029-0.144c0.019-0.045,0.046-0.087,0.081-0.122L7.08,0.64
			c0.203-0.203,0.477-0.321,0.764-0.329C8.131,0.303,8.41,0.405,8.625,0.597c0.206-0.184,0.473-0.286,0.749-0.286
			S9.918,0.412,10.123,0.596z M9.641,1.17c-0.07-0.07-0.166-0.11-0.266-0.11S9.181,1.1,9.11,1.17L1.462,8.816L0.89,11.109
			l2.292-0.572L10.83,2.89c0.035-0.035,0.063-0.076,0.082-0.122c0.019-0.045,0.028-0.094,0.028-0.144c0-0.05-0.01-0.099-0.028-0.144
			c-0.02-0.045-0.047-0.087-0.082-0.122L9.641,1.17L9.641,1.17z"/>
	</g>
</g>
</svg>
