<svg width="30" height="30" viewBox="0 0 30 30" fill="none" xmlns="http://www.w3.org/2000/svg">
<path d="M0 22.5V7.5C0 6.50544 0.395088 5.55161 1.09835 4.84835C1.80161 4.14509 2.75544 3.75 3.75 3.75H26.25C27.2446 3.75 28.1984 4.14509 28.9016 4.84835C29.6049 5.55161 30 6.50544 30 7.5V22.5C30 23.4946 29.6049 24.4484 28.9016 25.1516C28.1984 25.8549 27.2446 26.25 26.25 26.25H3.75C2.75544 26.25 1.80161 25.8549 1.09835 25.1516C0.395088 24.4484 0 23.4946 0 22.5ZM12.7312 9.54938C12.5911 9.44957 12.4261 9.39027 12.2545 9.37797C12.0828 9.36568 11.9111 9.40087 11.7581 9.47968C11.6052 9.55849 11.4768 9.67788 11.3872 9.82478C11.2976 9.97168 11.2501 10.1404 11.25 10.3125V19.6875C11.2501 19.8596 11.2976 20.0283 11.3872 20.1752C11.4768 20.3221 11.6052 20.4415 11.7581 20.5203C11.9111 20.5991 12.0828 20.6343 12.2545 20.622C12.4261 20.6097 12.5911 20.5504 12.7312 20.4506L19.2938 15.7631C19.4153 15.6764 19.5143 15.5619 19.5827 15.4292C19.651 15.2964 19.6867 15.1493 19.6867 15C19.6867 14.8507 19.651 14.7036 19.5827 14.5708C19.5143 14.4381 19.4153 14.3236 19.2938 14.2369L12.7312 9.54938Z" fill="#66C7BB"/>
</svg>
