<svg width="25" height="25" viewBox="0 0 25 25" fill="none" xmlns="http://www.w3.org/2000/svg">
<path d="M12.5 23.4375C19.4031 23.4375 25 18.5406 25 12.5C25 6.45937 19.4031 1.5625 12.5 1.5625C5.59687 1.5625 0 6.45937 0 12.5C0 15.25 1.16094 17.7656 3.07812 19.6875C2.92656 21.275 2.42656 23.0156 1.87344 24.3219C1.75 24.6125 1.98906 24.9375 2.3 24.8875C5.825 24.3094 7.92031 23.4219 8.83125 22.9594C10.028 23.2786 11.2614 23.4393 12.5 23.4375ZM12.5 9.36406C15.1 6.69063 21.6016 11.3687 12.5 17.3828C3.39844 11.3672 9.9 6.69063 12.5 9.36406Z" fill="white"/>
</svg>
