<svg width="25" height="25" viewBox="0 0 25 25" fill="none" xmlns="http://www.w3.org/2000/svg">
<g clip-path="url(#clip0_584_1508)">
<path d="M10.9373 5.37695C10.9373 6.41295 10.5258 7.40652 9.79319 8.13909C9.06063 8.87165 8.06706 9.2832 7.03105 9.2832C5.99505 9.2832 5.00148 8.87165 4.26892 8.13909C3.53635 7.40652 3.1248 6.41295 3.1248 5.37695C3.1248 4.34095 3.53635 3.34738 4.26892 2.61482C5.00148 1.88225 5.99505 1.4707 7.03105 1.4707C8.06706 1.4707 9.06063 1.88225 9.79319 2.61482C10.5258 3.34738 10.9373 4.34095 10.9373 5.37695ZM17.5389 9.50388C17.3923 9.43048 17.2264 9.40502 17.0646 9.4311C16.9028 9.45718 16.7533 9.53347 16.6373 9.64919L10.8404 17.0086L6.68418 12.6773C6.53412 12.5774 6.35412 12.5325 6.17471 12.5501C5.9953 12.5678 5.82751 12.647 5.6998 12.7742L0.00292969 19.5773V22.7023C0.00292969 23.1167 0.16755 23.5141 0.460575 23.8072C0.753601 24.1002 1.15103 24.2648 1.56543 24.2648H23.4404C23.6456 24.2648 23.8488 24.2244 24.0384 24.1459C24.2279 24.0674 24.4002 23.9523 24.5453 23.8072C24.6904 23.6621 24.8055 23.4898 24.884 23.3003C24.9625 23.1107 25.0029 22.9075 25.0029 22.7023V15.6711L17.5389 9.50388Z" fill="white"/>
</g>
<defs>
<clipPath id="clip0_584_1508">
<rect width="25" height="25" fill="white"/>
</clipPath>
</defs>
</svg>
