<svg width="130" height="130" viewBox="0 0 130 130" fill="none" xmlns="http://www.w3.org/2000/svg">
<path fill-rule="evenodd" clip-rule="evenodd" d="M65 130C100.899 130 130 100.899 130 65C130 29.1015 100.899 0 65 0C29.1015 0 0 29.1015 0 65L4.0516e-06 110.009C5.41852e-06 121.055 8.94674 130 19.9924 130H65ZM65.0165 76.267C71.0065 76.267 75.8623 71.4112 75.8623 65.4212C75.8623 59.4313 71.0065 54.5754 65.0165 54.5754C59.0266 54.5754 54.1708 59.4313 54.1708 65.4212C54.1708 71.4112 59.0266 76.267 65.0165 76.267ZM47.9022 65.4212C47.9022 71.4112 43.0464 76.267 37.0565 76.267C31.0665 76.267 26.2107 71.4112 26.2107 65.4212C26.2107 59.4313 31.0665 54.5754 37.0565 54.5754C43.0464 54.5754 47.9022 59.4313 47.9022 65.4212ZM92.9767 76.267C98.9667 76.267 103.823 71.4112 103.823 65.4212C103.823 59.4313 98.9667 54.5754 92.9767 54.5754C86.9868 54.5754 82.131 59.4313 82.131 65.4212C82.131 71.4112 86.9868 76.267 92.9767 76.267Z" fill="white"/>
</svg>
