<svg width="25" height="25" viewBox="0 0 25 25" fill="none" xmlns="http://www.w3.org/2000/svg">
<path fill-rule="evenodd" clip-rule="evenodd" d="M13.2812 3.125C13.4885 3.125 13.6872 3.20731 13.8337 3.35382C13.9802 3.50034 14.0625 3.69905 14.0625 3.90625V21.0938C14.0625 21.301 13.9802 21.4997 13.8337 21.6462C13.6872 21.7927 13.4885 21.875 13.2812 21.875C13.074 21.875 12.8753 21.7927 12.7288 21.6462C12.5823 21.4997 12.5 21.301 12.5 21.0938V3.90625C12.5 3.69905 12.5823 3.50034 12.7288 3.35382C12.8753 3.20731 13.074 3.125 13.2812 3.125ZM10.1562 6.25C10.3635 6.25 10.5622 6.33231 10.7087 6.47882C10.8552 6.62534 10.9375 6.82405 10.9375 7.03125V17.9688C10.9375 18.176 10.8552 18.3747 10.7087 18.5212C10.5622 18.6677 10.3635 18.75 10.1562 18.75C9.94905 18.75 9.75034 18.6677 9.60382 18.5212C9.45731 18.3747 9.375 18.176 9.375 17.9688V7.03125C9.375 6.82405 9.45731 6.62534 9.60382 6.47882C9.75034 6.33231 9.94905 6.25 10.1562 6.25ZM16.4062 6.25C16.6135 6.25 16.8122 6.33231 16.9587 6.47882C17.1052 6.62534 17.1875 6.82405 17.1875 7.03125V17.9688C17.1875 18.176 17.1052 18.3747 16.9587 18.5212C16.8122 18.6677 16.6135 18.75 16.4062 18.75C16.199 18.75 16.0003 18.6677 15.8538 18.5212C15.7073 18.3747 15.625 18.176 15.625 17.9688V7.03125C15.625 6.82405 15.7073 6.62534 15.8538 6.47882C16.0003 6.33231 16.199 6.25 16.4062 6.25ZM7.03125 8.59375C7.23845 8.59375 7.43716 8.67606 7.58368 8.82257C7.73019 8.96909 7.8125 9.1678 7.8125 9.375V15.625C7.8125 15.8322 7.73019 16.0309 7.58368 16.1774C7.43716 16.3239 7.23845 16.4062 7.03125 16.4062C6.82405 16.4062 6.62534 16.3239 6.47882 16.1774C6.33231 16.0309 6.25 15.8322 6.25 15.625V9.375C6.25 9.1678 6.33231 8.96909 6.47882 8.82257C6.62534 8.67606 6.82405 8.59375 7.03125 8.59375ZM19.5312 8.59375C19.7385 8.59375 19.9372 8.67606 20.0837 8.82257C20.2302 8.96909 20.3125 9.1678 20.3125 9.375V15.625C20.3125 15.8322 20.2302 16.0309 20.0837 16.1774C19.9372 16.3239 19.7385 16.4062 19.5312 16.4062C19.324 16.4062 19.1253 16.3239 18.9788 16.1774C18.8323 16.0309 18.75 15.8322 18.75 15.625V9.375C18.75 9.1678 18.8323 8.96909 18.9788 8.82257C19.1253 8.67606 19.324 8.59375 19.5312 8.59375ZM3.90625 10.1562C4.11345 10.1562 4.31216 10.2386 4.45868 10.3851C4.60519 10.5316 4.6875 10.7303 4.6875 10.9375V14.0625C4.6875 14.2697 4.60519 14.4684 4.45868 14.6149C4.31216 14.7614 4.11345 14.8438 3.90625 14.8438C3.69905 14.8438 3.50034 14.7614 3.35382 14.6149C3.20731 14.4684 3.125 14.2697 3.125 14.0625V10.9375C3.125 10.7303 3.20731 10.5316 3.35382 10.3851C3.50034 10.2386 3.69905 10.1562 3.90625 10.1562ZM22.6562 10.1562C22.8635 10.1562 23.0622 10.2386 23.2087 10.3851C23.3552 10.5316 23.4375 10.7303 23.4375 10.9375V14.0625C23.4375 14.2697 23.3552 14.4684 23.2087 14.6149C23.0622 14.7614 22.8635 14.8438 22.6562 14.8438C22.449 14.8438 22.2503 14.7614 22.1038 14.6149C21.9573 14.4684 21.875 14.2697 21.875 14.0625V10.9375C21.875 10.7303 21.9573 10.5316 22.1038 10.3851C22.2503 10.2386 22.449 10.1562 22.6562 10.1562Z" fill="white"/>
</svg>
