<svg width="162" height="162" viewBox="0 0 162 162" fill="none" xmlns="http://www.w3.org/2000/svg">
<path fill-rule="evenodd" clip-rule="evenodd" d="M0 72.45C0 46.8229 0 34.0094 5.0664 24.2562C9.33579 16.0372 16.0372 9.33579 24.2562 5.0664C34.0094 0 46.8229 0 72.45 0H89.55C115.177 0 127.991 0 137.744 5.0664C145.963 9.33579 152.664 16.0372 156.934 24.2562C162 34.0094 162 46.8229 162 72.45V89.55C162 115.177 162 127.991 156.934 137.744C152.664 145.963 145.963 152.664 137.744 156.934C127.991 162 115.177 162 89.55 162H72.45C46.8229 162 34.0094 162 24.2562 156.934C16.0372 152.664 9.33579 145.963 5.0664 137.744C0 127.991 0 115.177 0 89.55V72.45ZM81 122C103.644 122 122 103.644 122 81C122 58.3563 103.644 40 81 40C58.3563 40 40 58.3563 40 81C40 103.644 58.3563 122 81 122ZM81 109C96.464 109 109 96.464 109 81C109 65.536 96.464 53 81 53C65.536 53 53 65.536 53 81C53 96.464 65.536 109 81 109ZM130 43C136.075 43 141 38.0751 141 32C141 25.9249 136.075 21 130 21C123.925 21 119 25.9249 119 32C119 38.0751 123.925 43 130 43Z" fill="white"/>
</svg>
