<svg width="158" height="125" viewBox="0 0 158 125" fill="none" xmlns="http://www.w3.org/2000/svg">
<path fill-rule="evenodd" clip-rule="evenodd" d="M3.92377 19.6563C0 27.3572 0 37.4381 0 57.6V67.4C0 87.5619 0 97.6428 3.92377 105.344C7.37521 112.117 12.8825 117.625 19.6563 121.076C27.3572 125 37.4381 125 57.6 125H100.4C120.562 125 130.643 125 138.344 121.076C145.117 117.625 150.625 112.117 154.076 105.344C158 97.6428 158 87.5619 158 67.4V57.6C158 37.4381 158 27.3572 154.076 19.6563C150.625 12.8825 145.117 7.37521 138.344 3.92377C130.643 0 120.562 0 100.4 0H57.6C37.4381 0 27.3572 0 19.6563 3.92377C12.8825 7.37521 7.37521 12.8825 3.92377 19.6563ZM56.6083 91.3779L108.688 61.5L56.6083 31.6221L56.6083 91.3779Z" fill="white"/>
</svg>
