<svg width="142" height="115" viewBox="0 0 142 115" fill="none" xmlns="http://www.w3.org/2000/svg">
<path d="M44.6578 114.999C98.2453 114.999 127.55 70.7592 127.55 32.3976C127.55 31.1412 127.524 29.8899 127.467 28.6455C133.155 24.5472 138.099 19.433 142 13.6119C136.78 15.9249 131.162 17.48 125.27 18.1835C131.284 14.588 135.902 8.90267 138.08 2.12529C132.451 5.45081 126.217 7.86685 119.581 9.17179C114.264 3.52888 106.695 0 98.3139 0C82.2261 0 69.1785 13.0009 69.1785 29.0271C69.1785 31.3064 69.4347 33.5217 69.934 35.647C45.7207 34.4329 24.2489 22.8814 9.88141 5.31495C7.38045 9.60446 5.93718 14.5888 5.93718 19.9073C5.93718 29.9781 11.0807 38.8713 18.9014 44.072C14.1218 43.9258 9.63218 42.6182 5.70706 40.4419C5.70272 40.5639 5.70272 40.6825 5.70272 40.8123C5.70272 54.8724 15.7448 66.6116 29.0772 69.2717C26.6283 69.9354 24.0518 70.2928 21.3945 70.2928C19.5205 70.2928 17.6934 70.1094 15.9185 69.7693C19.6273 81.3043 30.3832 89.6982 43.1347 89.9336C33.1629 97.7217 20.6017 102.361 6.94972 102.361C4.6016 102.361 2.28039 102.227 0 101.958C12.8939 110.194 28.2044 115 44.6587 115" fill="white"/>
</svg>
