<?xml version="1.0" encoding="utf-8"?>
<!-- Generator: Adobe Illustrator 15.1.0, SVG Export Plug-In . SVG Version: 6.00 Build 0)  -->
<!DOCTYPE svg PUBLIC "-//W3C//DTD SVG 1.1//EN" "http://www.w3.org/Graphics/SVG/1.1/DTD/svg11.dtd">
<svg version="1.1" id="Layer_1" xmlns="http://www.w3.org/2000/svg" xmlns:xlink="http://www.w3.org/1999/xlink" x="0px" y="0px"
	 width="158px" height="125px" viewBox="0 0 158 125" enable-background="new 0 0 158 125" xml:space="preserve">
<g>
	<path fill="#FFFFFF" d="M137.763,19.656c-2.701-6.774-7.013-12.281-12.313-15.732C119.421,0,111.531,0,95.75,0h-33.5
		C46.469,0,38.579,0,32.551,3.924c-5.302,3.451-9.613,8.958-12.314,15.732c-3.071,7.701-3.071,17.782-3.071,37.944v9.8
		c0,20.162,0,30.242,3.071,37.943c2.701,6.773,7.012,12.281,12.314,15.732C38.579,125,46.469,125,62.25,125h33.5
		c15.781,0,23.671,0,29.699-3.924c5.301-3.451,9.612-8.959,12.313-15.732c3.071-7.701,3.071-17.781,3.071-37.943v-9.8
		C140.834,37.438,140.834,27.357,137.763,19.656z M51.845,49.189c-5.299,0-9.595-4.295-9.595-9.595c0-5.299,4.296-9.595,9.595-9.595
		c5.299,0,9.595,4.296,9.595,9.595C61.439,44.894,57.144,49.189,51.845,49.189z M79,103.5c-5.299,0-9.595-4.296-9.595-9.595
		s4.296-9.595,9.595-9.595s9.595,4.296,9.595,9.595S84.299,103.5,79,103.5z M79,76.345c-5.299,0-9.595-4.296-9.595-9.595
		c0-5.299,4.296-9.595,9.595-9.595s9.595,4.295,9.595,9.595C88.595,72.049,84.299,76.345,79,76.345z M79,49.189
		c-5.299,0-9.595-4.295-9.595-9.595C69.405,34.296,73.701,30,79,30s9.595,4.296,9.595,9.595C88.595,44.894,84.299,49.189,79,49.189z
		 M106.155,49.189c-5.299,0-9.595-4.295-9.595-9.595c0-5.299,4.296-9.595,9.595-9.595s9.595,4.296,9.595,9.595
		C115.75,44.894,111.454,49.189,106.155,49.189z"/>
</g>
</svg>
