<?xml version="1.0" encoding="utf-8"?>
<!-- Generator: Adobe Illustrator 15.1.0, SVG Export Plug-In . SVG Version: 6.00 Build 0)  -->
<!DOCTYPE svg PUBLIC "-//W3C//DTD SVG 1.1//EN" "http://www.w3.org/Graphics/SVG/1.1/DTD/svg11.dtd">
<svg version="1.1" id="Layer_1" xmlns="http://www.w3.org/2000/svg" xmlns:xlink="http://www.w3.org/1999/xlink" x="0px" y="0px"
	 width="10px" height="10px" viewBox="0 0 10 10" enable-background="new 0 0 10 10" xml:space="preserve">
<path fill="#DEE2E6" d="M1.791,9.281C1.742,9.559,2.016,9.775,2.257,9.652l2.744-1.41l2.743,1.41
	c0.241,0.123,0.516-0.094,0.467-0.37l-0.52-2.956l2.201-2.098C10.1,4.032,9.993,3.673,9.717,3.635L6.655,3.2L5.291,0.495
	C5.265,0.44,5.224,0.394,5.172,0.362c-0.051-0.033-0.111-0.05-0.171-0.05c-0.061,0-0.12,0.017-0.171,0.05
	C4.778,0.394,4.737,0.44,4.711,0.495L3.346,3.2L0.285,3.635C0.009,3.674-0.098,4.033,0.108,4.229L2.31,6.326L1.791,9.283V9.281z
	 M4.857,7.553L2.553,8.736l0.434-2.474c0.01-0.057,0.006-0.115-0.012-0.171c-0.018-0.055-0.049-0.104-0.09-0.145L1.069,4.216
	l2.532-0.36c0.053-0.008,0.102-0.028,0.145-0.06c0.043-0.031,0.077-0.072,0.101-0.12L5,1.39l1.154,2.286
	c0.023,0.048,0.058,0.089,0.101,0.12C6.298,3.828,6.348,3.848,6.4,3.856l2.532,0.359L7.116,5.946
	c-0.042,0.04-0.073,0.091-0.091,0.146S7.004,6.205,7.014,6.263l0.435,2.474L5.144,7.553C5.1,7.529,5.05,7.518,5,7.518
	C4.95,7.518,4.901,7.529,4.857,7.553L4.857,7.553z"/>
</svg>
