<?xml version="1.0" encoding="utf-8"?>
<!-- Generator: Adobe Illustrator 15.1.0, SVG Export Plug-In . SVG Version: 6.00 Build 0)  -->
<!DOCTYPE svg PUBLIC "-//W3C//DTD SVG 1.1//EN" "http://www.w3.org/Graphics/SVG/1.1/DTD/svg11.dtd">
<svg version="1.1" id="Layer_1" xmlns="http://www.w3.org/2000/svg" xmlns:xlink="http://www.w3.org/1999/xlink" x="0px" y="0px"
	 width="10px" height="10px" viewBox="0 0 10 10" enable-background="new 0 0 10 10" xml:space="preserve">
<g>
	<defs>
		<rect id="SVGID_1_" width="10" height="10"/>
	</defs>
	<clipPath id="SVGID_2_">
		<use xlink:href="#SVGID_1_"  overflow="visible"/>
	</clipPath>
	<g clip-path="url(#SVGID_2_)">
		<path fill="#EFDC2C" d="M2.257,9.652C2.016,9.775,1.742,9.559,1.791,9.281L2.31,6.325L0.108,4.228
			c-0.206-0.196-0.099-0.555,0.177-0.594l3.062-0.435l1.365-2.705c0.124-0.244,0.457-0.244,0.58,0l1.365,2.705l3.062,0.435
			C9.992,3.673,10.1,4.032,9.893,4.228L7.691,6.325l0.52,2.956C8.26,9.559,7.985,9.775,7.744,9.652L5,8.242L2.257,9.652L2.257,9.652
			z"/>
	</g>
</g>
</svg>
